<svg xmlns="http://www.w3.org/2000/svg" width="36" height="36" viewBox="0 0 36 36" fill="none"><g clip-path="url(#clip0_431_433)"><path d="M23.999 1.50024H11.999C9.50902 1.50024 7.49902 3.51024 7.49902 6.00024V30.0002C7.49902 32.4902 9.50902 34.5002 11.999 34.5002H23.999C26.489 34.5002 28.499 32.4902 28.499 30.0002V6.00024C28.499 3.51024 26.489 1.50024 23.999 1.50024ZM20.999 31.5002H14.999V30.0002H20.999V31.5002ZM25.874 27.0002H10.124V6.00024H25.874V27.0002Z" fill="#103034"></path><path d="M19.201 21.2052V18.5802C15.871 18.5802 13.666 19.6002 12.001 21.8502C12.676 18.6402 14.536 15.4452 19.201 14.8002V12.2502L24.001 16.7202L19.201 21.2052Z" fill="black"></path></g><defs><clipPath id="clip0_431_433"><rect width="36" height="36" fill="white"></rect></clipPath></defs></svg>