<svg xmlns="http://www.w3.org/2000/svg" width="120" height="52" viewBox="0 0 120 52" fill="none"><path d="M95.74 46.9198V34.7688H99.0607V46.9198H95.74ZM97.4003 32.8065C96.8636 32.8065 96.4192 32.6304 96.067 32.2782C95.7148 31.9093 95.5387 31.4564 95.5387 30.9198C95.5387 30.3998 95.7148 29.9554 96.067 29.5864C96.4192 29.2174 96.8636 29.033 97.4003 29.033C97.9538 29.033 98.3982 29.2174 98.7337 29.5864C99.0859 29.9554 99.262 30.3998 99.262 30.9198C99.262 31.4564 99.0859 31.9093 98.7337 32.2782C98.3982 32.6304 97.9538 32.8065 97.4003 32.8065Z" fill="#103034"></path><path d="M89.5244 46.9199V28.7312H92.82V46.9199H89.5244Z" fill="#103034"></path><path d="M84.3692 47.1712C83.7654 47.1712 83.2706 46.97 82.8849 46.5674C82.4991 46.1649 82.3063 45.6702 82.3063 45.0832C82.3063 44.4962 82.4991 44.0014 82.8849 43.5989C83.2706 43.1964 83.7654 42.9951 84.3692 42.9951C84.9562 42.9951 85.4425 43.1964 85.8283 43.5989C86.214 44.0014 86.4069 44.4962 86.4069 45.0832C86.4069 45.6702 86.214 46.1649 85.8283 46.5674C85.4425 46.97 84.9562 47.1712 84.3692 47.1712Z" fill="#103034"></path><path d="M74.9731 46.9197V29.7122H78.2687V46.9197H74.9731ZM72.1304 37.6618V34.7688H81.1115V37.6618H72.1304Z" fill="#103034"></path><path d="M67.3841 46.9199V39.9513C67.3841 39.2301 67.1576 38.6431 66.7048 38.1903C66.252 37.7375 65.665 37.511 64.9438 37.511C64.4742 37.511 64.0549 37.6117 63.6859 37.8129C63.317 38.0142 63.0235 38.2993 62.8054 38.6683C62.6042 39.0373 62.5035 39.4649 62.5035 39.9513L61.2205 39.2972C61.2205 38.3412 61.4218 37.511 61.8243 36.8066C62.2436 36.0855 62.8138 35.5236 63.535 35.1211C64.2729 34.7186 65.1031 34.5173 66.0256 34.5173C66.9145 34.5173 67.7111 34.7437 68.4155 35.1966C69.1199 35.6326 69.6734 36.2113 70.0759 36.9324C70.4784 37.6368 70.6796 38.3999 70.6796 39.2217V46.9199H67.3841ZM59.2079 46.9199V34.7689H62.5035V46.9199H59.2079Z" fill="#103034"></path><path d="M51.4088 47.1714C50.1342 47.1714 49.0021 46.9031 48.0126 46.3664C47.0231 45.8129 46.2348 45.0582 45.6478 44.1023C45.0776 43.1463 44.7925 42.0561 44.7925 40.8318C44.7925 39.6243 45.0692 38.5509 45.6227 37.6117C46.1929 36.6557 46.9644 35.901 47.9371 35.3475C48.9099 34.7773 49.9916 34.4922 51.1824 34.4922C52.3564 34.4922 53.3879 34.7605 54.2768 35.2972C55.1824 35.8171 55.8868 36.5383 56.39 37.4607C56.9099 38.3664 57.1698 39.3978 57.1698 40.5551C57.1698 40.7731 57.1531 40.9995 57.1195 41.2343C57.1028 41.4524 57.0608 41.7039 56.9937 41.989L46.7799 42.0142V39.5488L55.4591 39.5236L54.1258 40.5551C54.0923 39.8339 53.9581 39.2301 53.7233 38.7438C53.5053 38.2574 53.1782 37.8884 52.7422 37.6368C52.3229 37.3685 51.803 37.2343 51.1824 37.2343C50.5283 37.2343 49.9581 37.3853 49.4717 37.6872C48.9854 37.9723 48.608 38.3832 48.3396 38.9199C48.0881 39.4398 47.9623 40.0603 47.9623 40.7815C47.9623 41.5194 48.0965 42.1651 48.3648 42.7186C48.6499 43.2553 49.0524 43.6746 49.5724 43.9765C50.0923 44.2616 50.696 44.4041 51.3837 44.4041C52.0042 44.4041 52.5661 44.3035 53.0692 44.1023C53.5724 43.8842 54.0084 43.5656 54.3774 43.1463L56.3145 45.0834C55.7275 45.771 55.0063 46.2909 54.151 46.6431C53.3124 46.9953 52.3984 47.1714 51.4088 47.1714Z" fill="#103034"></path><path d="M39.3573 46.9198V34.7688H42.6781V46.9198H39.3573ZM41.0177 32.8065C40.481 32.8065 40.0366 32.6304 39.6844 32.2782C39.3322 31.9093 39.1561 31.4564 39.1561 30.9198C39.1561 30.3998 39.3322 29.9554 39.6844 29.5864C40.0366 29.2174 40.481 29.033 41.0177 29.033C41.5712 29.033 42.0156 29.2174 42.351 29.5864C42.7032 29.9554 42.8793 30.3998 42.8793 30.9198C42.8793 31.4564 42.7032 31.9093 42.351 32.2782C42.0156 32.6304 41.5712 32.8065 41.0177 32.8065Z" fill="#103034"></path><path d="M31.3656 46.9197V29.7122H34.6612V46.9197H31.3656ZM28.5228 37.6618V34.7688H37.504V37.6618H28.5228Z" fill="#103034"></path><path d="M19.8715 47.1714C18.7646 47.1714 17.7667 46.8947 16.8778 46.3412C15.9889 45.7878 15.2929 45.0331 14.7898 44.0771C14.2866 43.1211 14.035 42.0477 14.035 40.857C14.035 39.6494 14.2866 38.5676 14.7898 37.6117C15.2929 36.6557 15.9889 35.901 16.8778 35.3475C17.7667 34.7941 18.7646 34.5173 19.8715 34.5173C20.7436 34.5173 21.5235 34.6934 22.2111 35.0456C22.8988 35.3978 23.4438 35.8926 23.8464 36.5299C24.2656 37.1505 24.4921 37.8549 24.5256 38.6431V43.0205C24.4921 43.8255 24.2656 44.5383 23.8464 45.1588C23.4438 45.7794 22.8988 46.2742 22.2111 46.6431C21.5235 46.9953 20.7436 47.1714 19.8715 47.1714ZM20.4753 44.1274C21.3977 44.1274 22.1441 43.8255 22.7143 43.2217C23.2845 42.6012 23.5696 41.8045 23.5696 40.8318C23.5696 40.1945 23.4355 39.6326 23.1671 39.1463C22.9155 38.6431 22.555 38.2574 22.0854 37.989C21.6325 37.7039 21.0958 37.5614 20.4753 37.5614C19.8715 37.5614 19.3348 37.7039 18.8652 37.989C18.4124 38.2574 18.0518 38.6431 17.7835 39.1463C17.5319 39.6326 17.4061 40.1945 17.4061 40.8318C17.4061 41.4859 17.5319 42.0645 17.7835 42.5677C18.0518 43.054 18.4124 43.4398 18.8652 43.7249C19.3348 43.9932 19.8715 44.1274 20.4753 44.1274ZM23.3935 46.9199V43.6494L23.9218 40.6809L23.3935 37.7626V34.7689H26.664V46.9199H23.3935Z" fill="#103034"></path><path d="M6.74214 47.1714C5.87002 47.1714 5.08176 46.9953 4.37736 46.6431C3.67296 46.2742 3.11111 45.7794 2.69182 45.1588C2.27254 44.5383 2.04612 43.8255 2.01258 43.0205V38.7186C2.04612 37.9136 2.27254 37.2008 2.69182 36.5802C3.12788 35.9429 3.68973 35.4398 4.37736 35.0708C5.08176 34.7018 5.87002 34.5173 6.74214 34.5173C7.86583 34.5173 8.87212 34.7941 9.76101 35.3475C10.6499 35.901 11.3459 36.6557 11.8491 37.6117C12.369 38.5676 12.6289 39.6494 12.6289 40.857C12.6289 42.0477 12.369 43.1211 11.8491 44.0771C11.3459 45.0331 10.6499 45.7878 9.76101 46.3412C8.87212 46.8947 7.86583 47.1714 6.74214 47.1714ZM0 52.0016V34.7689H3.2956V37.9639L2.74214 40.9073L3.27044 43.8507V52.0016H0ZM6.16352 44.1274C6.7673 44.1274 7.30398 43.9932 7.77359 43.7249C8.24319 43.4398 8.60377 43.054 8.85535 42.5677C9.12369 42.0645 9.25786 41.4859 9.25786 40.8318C9.25786 40.1945 9.12369 39.6326 8.85535 39.1463C8.60377 38.6431 8.24319 38.2574 7.77359 37.989C7.30398 37.7039 6.7673 37.5614 6.16352 37.5614C5.57652 37.5614 5.04822 37.7039 4.57862 37.989C4.10902 38.2574 3.74004 38.6431 3.4717 39.1463C3.22013 39.6326 3.09434 40.1945 3.09434 40.8318C3.09434 41.4859 3.22013 42.0645 3.4717 42.5677C3.74004 43.054 4.10063 43.4398 4.55346 43.7249C5.02306 43.9932 5.55975 44.1274 6.16352 44.1274Z" fill="#103034"></path><path d="M94.8679 15.9815V13.043H106.467V15.9815H94.8679ZM99.1953 8.37744H102.166V20.6213H99.1953V8.37744Z" fill="white"></path><path d="M108.401 7.60407V4.66555H120V7.60407H108.401ZM112.728 0H115.698V12.2439H112.728V0Z" fill="white"></path><path d="M108.401 23.9585V21.1746H120V23.9585H108.401ZM112.728 16.7546H115.698V28.3541H112.728V16.7546Z" fill="white"></path></svg>