<svg width="31" height="31" viewBox="0 0 31 31" fill="none" xmlns="http://www.w3.org/2000/svg">
<path fill-rule="evenodd" clip-rule="evenodd" d="M26.1563 24.2188H28.0938C28.629 24.2188 29.0625 24.6523 29.0625 25.1875C29.0625 25.7227 28.629 26.1563 28.0938 26.1563H2.90625C2.371 26.1563 1.9375 25.7227 1.9375 25.1875C1.9375 24.6523 2.371 24.2188 2.90625 24.2188H4.84375V16.4616C4.84375 15.3924 5.71079 14.5241 6.78125 14.5241H8.71875C9.78921 14.5241 10.6563 15.3924 10.6563 16.4616V24.2188H12.5938V10.6563C12.5938 9.58579 13.4608 8.71875 14.5313 8.71875H16.4688C17.5392 8.71875 18.4063 9.58579 18.4063 10.6563V24.2188H20.3438V6.78125C20.3438 5.712 21.2108 4.84375 22.2813 4.84375H24.2188C25.2892 4.84375 26.1563 5.712 26.1563 6.78125V24.2188ZM14.5313 24.2188H16.4688V10.6563H14.5313V24.2188ZM6.78125 16.4616V24.2188H8.71875V16.4616H6.78125ZM22.2813 6.78125V24.2188H24.2188V6.78125H22.2813ZM6.78125 8.15083L6.38042 8.55166C6.00259 8.9307 5.38867 8.9307 5.01084 8.55166C4.6318 8.17383 4.6318 7.55991 5.01084 7.18208L7.06459 5.12712C7.44242 4.74929 8.05755 4.74929 8.43538 5.12712L10.4891 7.18208C10.8682 7.55991 10.8682 8.17383 10.4891 8.55166C10.1113 8.9307 9.49738 8.9307 9.11955 8.55166L8.71872 8.15083V11.6225C8.71872 12.1566 8.28522 12.5913 7.74997 12.5913C7.21472 12.5913 6.78122 12.1566 6.78122 11.6225L6.78125 8.15083Z" fill="white"/>
</svg>
