<svg width="32" height="32" viewBox="0 0 32 32" fill="none" xmlns="http://www.w3.org/2000/svg">
<path d="M31.4417 28.8454L21.7971 19.1989C23.2805 17.2512 24.1152 14.747 24.1152 12.0567C24.1152 5.37882 18.7364 0 12.0585 0C5.3806 0 0 5.3806 0 12.0585C0 18.7364 5.37882 24.1152 12.0567 24.1152C14.747 24.1152 17.1573 23.2805 19.1989 21.7971L28.8454 31.4435C29.2158 31.8139 29.6801 32 30.1444 32C30.6088 32 31.0713 31.8139 31.4435 31.4435C32.1844 30.7009 32.1843 29.5879 31.4417 28.8454ZM12.0585 20.4058C7.42047 20.4058 3.71113 16.6965 3.71113 12.0585C3.71113 7.42047 7.42047 3.71113 12.0585 3.71113C16.6965 3.71113 20.4058 7.42047 20.4058 12.0585C20.4058 16.6947 16.6948 20.4058 12.0585 20.4058Z" fill="#103034"/>
<path d="M14.0617 9C13.0297 9 12.3781 9.45978 12 9.87559C11.6219 9.45978 10.9703 9 9.93791 9C8.1805 9 7 10.4902 7 11.8816C7 13.9078 11.252 16.6229 11.7367 16.9256C11.816 16.975 11.9082 17 12 17C12.0922 17 12.184 16.9753 12.2633 16.9256C12.7481 16.6228 17 13.9077 17 11.8816C17 10.4902 15.8191 9 14.0617 9Z" fill="#103034"/>
</svg>
