<svg width="32" height="32" viewBox="0 0 32 32" fill="none" xmlns="http://www.w3.org/2000/svg">
<path d="M16.0029 2.40359C15.5404 2.40359 15.2579 2.56484 14.9517 2.73358C14.6454 2.90233 14.3429 3.11108 14.0479 3.31358C13.7529 3.51608 13.4667 3.71108 13.2329 3.86231C12.9992 4.01231 12.7867 4.10606 12.8142 4.09856C12.8417 4.09106 12.6079 4.12481 12.3304 4.11106C12.0529 4.09731 11.7079 4.06231 11.3504 4.03481C10.9942 4.00731 10.6242 3.98481 10.2754 3.99231C9.92667 3.99981 9.6004 3.99231 9.2004 4.22357C8.8004 4.45482 8.64414 4.73857 8.46289 5.03733C8.28164 5.33607 8.1204 5.66606 7.96664 5.98859C7.81289 6.31109 7.66914 6.62734 7.54164 6.87483C7.41414 7.12233 7.2729 7.30734 7.2929 7.28734C7.3129 7.26734 7.12165 7.40859 6.87414 7.53609C6.62664 7.66359 6.3104 7.81359 5.9879 7.96735C5.66541 8.12111 5.33539 8.2836 5.03664 8.46361C4.73789 8.64486 4.45414 8.80111 4.22288 9.20111C3.91663 9.7311 3.97788 10.1461 3.99163 10.6186C3.99663 10.7936 4.00913 10.9724 4.02163 11.1499L3.70163 11.1486C2.49289 11.1486 1.49414 12.1486 1.49414 13.3586V18.6425C1.49414 19.8512 2.49289 20.8524 3.70163 20.8524H4.02163C4.00788 21.0299 3.99538 21.2087 3.99038 21.3837C3.97663 21.8562 3.91538 22.2712 4.22163 22.8012C4.45288 23.2012 4.73664 23.36 5.03539 23.54C5.33414 23.7212 5.66413 23.8812 5.98665 24.035C6.30915 24.1887 6.62541 24.3387 6.87289 24.4662C7.1204 24.5937 7.31165 24.735 7.29165 24.715C7.27165 24.695 7.4129 24.88 7.54039 25.1275C7.6679 25.375 7.81165 25.6912 7.96539 26.0137C8.11914 26.3362 8.28164 26.6662 8.46164 26.965C8.64289 27.2637 8.79915 27.5475 9.19915 27.7788C9.59915 28.01 9.92539 28.0025 10.2742 28.01C10.6229 28.0175 10.9929 27.995 11.3492 27.9675C11.7054 27.94 12.0504 27.9038 12.3292 27.8913C12.6067 27.8775 12.8404 27.9113 12.8129 27.9038C12.7854 27.8963 12.9979 27.9888 13.2317 28.14C13.4654 28.29 13.7529 28.4862 14.0467 28.6887C14.3417 28.8912 14.6442 29.1 14.9504 29.2687C15.2567 29.4375 15.5391 29.5987 16.0017 29.5987C16.4642 29.5987 16.7417 29.4375 17.0467 29.2687C17.3529 29.1 17.6554 28.8912 17.9504 28.6887C18.2454 28.4862 18.5317 28.2912 18.7654 28.14C18.9992 27.99 19.2179 27.8963 19.1904 27.9038C19.1629 27.9113 19.3967 27.8775 19.6754 27.8913C19.9529 27.905 20.2979 27.94 20.6554 27.9675C21.0117 27.995 21.3754 28.0175 21.7241 28.01C22.0729 28.0025 22.3991 28.01 22.7991 27.7788C23.1991 27.5475 23.3579 27.2637 23.5379 26.965C23.7192 26.6662 23.8791 26.3363 24.0329 26.0137C24.1867 25.6912 24.3367 25.375 24.4642 25.1275C24.5917 24.88 24.7329 24.695 24.7129 24.715C24.6929 24.735 24.8779 24.5937 25.1254 24.4662C25.3729 24.3387 25.6892 24.1887 26.0117 24.035C26.3342 23.8812 26.6642 23.72 26.9629 23.54C27.2617 23.3587 27.5454 23.2012 27.7767 22.8012C28.0829 22.2712 28.0217 21.8562 28.0079 21.3837C28.0029 21.2087 27.9917 21.0299 27.9804 20.8524H28.2979C29.5067 20.8524 30.5079 19.8524 30.5079 18.6425V13.3586C30.5079 12.1499 29.5079 11.1486 28.2979 11.1486H27.9804C27.9929 10.9711 28.0029 10.7924 28.0079 10.6174C28.0217 10.1449 28.0829 9.72988 27.7767 9.19986C27.5454 8.79986 27.2617 8.64361 26.9629 8.46236C26.6642 8.28111 26.3342 8.11986 26.0117 7.9661C25.6892 7.81235 25.3729 7.66235 25.1254 7.53484C24.8779 7.40733 24.6929 7.26609 24.7129 7.28609C24.7329 7.30609 24.5917 7.12109 24.4642 6.87358C24.3379 6.62608 24.1879 6.30984 24.0342 5.98734C23.8792 5.66484 23.7192 5.33483 23.5391 5.03608C23.3579 4.73733 23.2004 4.45358 22.7991 4.22232C22.3991 3.99106 22.0742 3.99732 21.7241 3.99106C21.3754 3.98356 21.0116 4.00606 20.6554 4.03356C20.2991 4.06106 19.9542 4.09731 19.6754 4.10981C19.3979 4.12231 19.1641 4.08981 19.1904 4.09731C19.2179 4.10481 18.9992 4.01231 18.7654 3.86106C18.5317 3.71106 18.2442 3.51482 17.9504 3.31233C17.6554 3.10983 17.3529 2.90106 17.0467 2.73233C16.7404 2.56358 16.4642 2.40234 16.0017 2.40234L16.0029 2.40359ZM16.0017 4.0186C16.0542 4.0386 16.1579 4.07485 16.2754 4.1386C16.4892 4.2561 16.7667 4.4361 17.0492 4.62859C17.3317 4.82234 17.6254 5.02734 17.9054 5.20734C18.1854 5.38734 18.4217 5.54859 18.7792 5.64484C19.1367 5.74109 19.4217 5.71984 19.7542 5.70484C20.0867 5.68859 20.4405 5.65359 20.7829 5.62609C21.1242 5.59984 21.4542 5.57984 21.698 5.58609C21.8342 5.58859 21.9392 5.61234 21.993 5.62359C22.028 5.66359 22.103 5.74484 22.1755 5.86359C22.3017 6.07234 22.4467 6.36859 22.5942 6.67735C22.7417 6.9861 22.8905 7.30987 23.0429 7.60484C23.1954 7.90109 23.3192 8.15735 23.5804 8.4186C23.8417 8.67985 24.1004 8.80359 24.3955 8.95611C24.6917 9.10861 25.0192 9.25736 25.328 9.40484C25.6367 9.55234 25.928 9.70359 26.1379 9.82983C26.2429 9.89358 26.3229 9.96109 26.3692 9.99983C26.3754 10.0836 26.4179 10.3111 26.4105 10.5686C26.4055 10.7448 26.3917 10.9423 26.378 11.1473L23.7079 11.1486C22.0479 8.51107 19.1415 6.89097 16.003 6.89097C12.863 6.89097 9.9505 8.50848 8.29033 11.1486H5.62659C5.61034 10.9448 5.59784 10.7473 5.59159 10.5698C5.58409 10.3098 5.62909 10.0823 5.63659 9.99984C5.68159 9.96109 5.75909 9.89359 5.86284 9.83109C6.07159 9.70484 6.36783 9.55359 6.6766 9.40609C6.98535 9.25859 7.30911 9.10985 7.60533 8.95736C7.90158 8.80486 8.15784 8.68111 8.41909 8.41985C8.68034 8.1586 8.80409 7.9011 8.9566 7.60609C9.1091 7.30985 9.25785 6.98734 9.40533 6.67861C9.55282 6.36987 9.70408 6.07361 9.83033 5.86485C9.90282 5.74485 9.97783 5.66485 10.0128 5.62485C10.0678 5.6136 10.1728 5.58985 10.3103 5.58735C10.5541 5.58235 10.8828 5.6011 11.2241 5.62735C11.5653 5.6536 11.9203 5.68985 12.2516 5.70609C12.5841 5.72234 12.8691 5.74234 13.2266 5.64609C13.5841 5.54985 13.8203 5.38859 14.1003 5.20859C14.3803 5.02859 14.6678 4.8236 14.9503 4.62984C15.2328 4.43608 15.5103 4.25733 15.7241 4.13985C15.8403 4.0761 15.9453 4.03985 16.0003 4.01985L16.0017 4.0186ZM16.0029 8.48996C18.2354 8.48996 20.3204 9.48123 21.7316 11.1475L10.2704 11.1487C11.6804 9.47998 13.7693 8.49121 16.0029 8.49121V8.48996ZM3.7018 12.7476H28.298C28.6492 12.7476 28.9055 13.0063 28.9055 13.3563V18.6401C28.9055 18.9914 28.648 19.2489 28.298 19.2489L3.7018 19.2514C3.35054 19.2514 3.09432 18.9926 3.09432 18.6426V13.3588C3.09432 13.0075 3.35182 12.7501 3.7018 12.7501V12.7476ZM5.6268 20.85H8.29054C9.95054 23.49 12.863 25.1076 16.0032 25.1076C19.1433 25.1076 22.0505 23.4901 23.7107 20.85L26.3769 20.8512C26.3919 21.0562 26.4044 21.2525 26.4094 21.43C26.4169 21.6925 26.3744 21.9187 26.3707 21.995C26.3244 22.035 26.2457 22.1037 26.1382 22.1687C25.9294 22.295 25.6382 22.4462 25.3282 22.5937C25.0195 22.7412 24.6907 22.8899 24.3957 23.0424C24.0994 23.1949 23.8419 23.3187 23.5807 23.5799C23.3194 23.8412 23.1957 24.0999 23.0432 24.3962C22.8907 24.6924 22.7419 25.0137 22.5944 25.3224C22.4469 25.6312 22.302 25.9287 22.1757 26.1387C22.1069 26.2524 22.0344 26.3312 21.9957 26.3724C21.9432 26.3824 21.8357 26.4074 21.6957 26.4099C21.4519 26.4149 21.1232 26.4012 20.7819 26.3737C20.4407 26.3474 20.0857 26.3124 19.7532 26.2974C19.4207 26.2812 19.1357 26.2612 18.7782 26.3574C18.4207 26.4537 18.1844 26.6137 17.9044 26.7937C17.6244 26.9737 17.3307 27.1799 17.0482 27.3737C16.7657 27.5674 16.4882 27.745 16.2744 27.8624C16.1582 27.9262 16.0532 27.9624 16.0007 27.9824C15.9457 27.9624 15.8394 27.9262 15.7244 27.8624C15.5107 27.7449 15.2332 27.5674 14.9507 27.3737C14.6682 27.18 14.3807 26.9737 14.1007 26.7937C13.8207 26.6137 13.5844 26.4537 13.2269 26.3574C12.8694 26.2612 12.5844 26.2824 12.2519 26.2974C11.9194 26.3137 11.5657 26.3474 11.2244 26.3737C10.8832 26.3999 10.5544 26.4149 10.3107 26.4099C10.1707 26.4074 10.0632 26.3824 10.0107 26.3724C9.97316 26.3299 9.8994 26.2512 9.83066 26.1387C9.70441 25.9299 9.55316 25.6324 9.40566 25.3224C9.25816 25.0137 9.10941 24.6912 8.95693 24.3962C8.80443 24.0999 8.68068 23.8424 8.41942 23.5799C8.15817 23.3187 7.90067 23.1949 7.60566 23.0424C7.30941 22.8899 6.98691 22.7412 6.67693 22.5937C6.36818 22.4462 6.07194 22.295 5.86317 22.1687C5.75942 22.1062 5.68192 22.0387 5.63692 21.9987C5.63067 21.92 5.58442 21.6925 5.59192 21.43C5.59692 21.2537 5.61067 21.0562 5.62692 20.8512L5.6268 20.85ZM10.2754 20.85H21.7318C20.3205 22.5162 18.2354 23.5075 16.0031 23.5075C13.7719 23.5075 11.6854 22.5162 10.2754 20.85Z" fill="black"/>
</svg>
