<svg width="34" height="34" viewBox="0 0 34 34" fill="none" xmlns="http://www.w3.org/2000/svg">
<g clip-path="url(#clip0_79_301)">
<path d="M31.0611 21.1997L34.0002 18.9738L31.5883 16.1847C31.3347 15.8925 31.2908 15.4742 31.4781 15.1342L33.2578 11.9042L29.9202 10.3383C29.5696 10.1736 29.3598 9.80838 29.3916 9.42322L29.7037 5.74952L26.0168 5.67648C25.6303 5.66851 25.289 5.42148 25.1628 5.05625L23.9529 1.57125L20.5555 3.00428C20.1983 3.15436 19.7866 3.0667 19.5236 2.78381L17.0001 0.0930176L14.478 2.78381C14.2137 3.0667 13.802 3.15434 13.446 3.00428L10.0487 1.57125L8.84009 5.05489C8.71259 5.42012 8.37126 5.66849 7.98611 5.67512L4.29915 5.74816L4.61126 9.42186C4.64446 9.80834 4.43462 10.1736 4.08266 10.3369L0.745083 11.9028L2.52478 15.1328C2.71204 15.4715 2.66689 15.8899 2.41454 16.1833L0 18.9737L2.93913 21.1997C3.24725 21.4334 3.37875 21.8345 3.26585 22.2037L2.19672 25.7339L5.78678 26.572C6.16398 26.6596 6.44553 26.9731 6.49333 27.3569L6.95155 31.016L10.5732 30.3214C10.9531 30.2483 11.3369 30.4196 11.5374 30.7503L13.4446 33.9073L16.4701 31.7996C16.6295 31.6893 16.8141 31.6349 16.9987 31.6349C17.1833 31.6349 17.3679 31.6893 17.5273 31.7996L20.5527 33.9073L22.4599 30.7503C22.6605 30.4196 23.0443 30.2483 23.4241 30.3214L27.0458 31.016L27.5054 27.3569C27.5532 26.9731 27.8347 26.6596 28.2119 26.572L31.802 25.7339L30.7329 22.2037C30.6213 21.8345 30.7517 21.4335 31.0611 21.1997ZM17.0004 16.15C19.3804 16.15 21.3153 18.0864 21.3153 20.465C21.3153 22.5275 19.8611 24.2553 17.9233 24.6803V26.5516C17.9233 27.0616 17.5089 27.476 16.9989 27.476C16.4889 27.476 16.0745 27.0616 16.0745 26.5516V24.6803C15.1103 24.4718 14.2444 23.9379 13.6161 23.1437C13.0145 22.3866 12.6838 21.4344 12.6838 20.4635C12.6838 19.9522 13.0968 19.5391 13.6082 19.5391C14.1182 19.5391 14.5326 19.9521 14.5326 20.4635C14.5326 21.0266 14.7159 21.5565 15.0652 21.9948C15.5366 22.5898 16.2432 22.9312 17.0002 22.9312C18.3616 22.9312 19.4679 21.8248 19.4679 20.4635C19.4679 19.1048 18.3616 17.9985 17.0002 17.9985C14.6202 17.9985 12.6853 16.0621 12.6853 13.6822C12.6853 11.6196 14.1396 9.89188 16.0773 9.46688V7.41892C16.0773 6.90892 16.4917 6.49453 17.0017 6.49453C17.5117 6.49453 17.9261 6.90892 17.9261 7.41892V9.46688C19.8625 9.89188 21.3182 11.6211 21.3182 13.6822C21.3182 14.1935 20.9051 14.6066 20.3938 14.6066C19.8838 14.6066 19.4694 14.1936 19.4694 13.6822C19.4694 12.3209 18.3631 11.2145 17.0017 11.2145C15.6404 11.2145 14.5341 12.3209 14.5341 13.6822C14.5328 15.0422 15.6391 16.15 17.0004 16.15Z" fill="white"/>
</g>
<defs>
<clipPath id="clip0_79_301">
<rect width="34" height="34" fill="white"/>
</clipPath>
</defs>
</svg>
