<svg width="32" height="32" viewBox="0 0 32 32" fill="none" xmlns="http://www.w3.org/2000/svg">
<g clip-path="url(#clip0_223_642)">
<path d="M12.7076 8.29242C13.0976 8.68368 13.0976 9.31616 12.7076 9.70742L8.95747 13.4575C8.76997 13.645 8.51498 13.75 8.24998 13.75C7.98499 13.75 7.72998 13.645 7.5425 13.4575L5.29251 11.2075C4.9025 10.8163 4.9025 10.1838 5.29251 9.79251C5.68378 9.4025 6.31626 9.4025 6.70752 9.79251L8.25002 11.3363L11.2925 8.29251C11.6838 7.9025 12.3163 7.9024 12.7076 8.29242Z" fill="black"/>
<path d="M16 10C15.4475 10 15 10.4475 15 11C15 11.5525 15.4475 12 16 12H26C26.5525 12 27 11.5525 27 11C27 10.4475 26.5525 10 26 10H16Z" fill="black"/>
<path d="M15 21C15 20.4475 15.4475 20 16 20H26C26.5525 20 27 20.4475 27 21C27 21.5525 26.5525 22 26 22H16C15.4475 22 15 21.5525 15 21Z" fill="black"/>
<path d="M12.7075 19.7075C13.0975 19.3163 13.0975 18.6838 12.7075 18.2925C12.3163 17.9025 11.6838 17.9025 11.2925 18.2925L8.25002 21.3363L6.70752 19.7925C6.31626 19.4025 5.68378 19.4025 5.29251 19.7925C4.9025 20.1838 4.9025 20.8163 5.29251 21.2075L7.5425 23.4575C7.73 23.645 7.98499 23.75 8.24998 23.75C8.51498 23.75 8.76998 23.645 8.95747 23.4575L12.7075 19.7075Z" fill="black"/>
<path fill-rule="evenodd" clip-rule="evenodd" d="M0 29C0 30.6575 1.34374 32 3 32H29C30.6575 32 32 30.6575 32 29V3C32 1.34374 30.6575 0 29 0H3C1.34374 0 0 1.34374 0 3V29ZM3 30C2.44749 30 2 29.5525 2 29V3C2 2.44749 2.44749 2 3 2H29C29.5525 2 30 2.44749 30 3V29C30 29.5525 29.5525 30 29 30H3Z" fill="black"/>
</g>
<defs>
<clipPath id="clip0_223_642">
<rect width="32" height="32" fill="white"/>
</clipPath>
</defs>
</svg>
