<svg width="120" height="52" viewBox="0 0 120 52" fill="none" xmlns="http://www.w3.org/2000/svg">
<path d="M95.7389 46.92V34.769H99.0596V46.92H95.7389ZM97.3992 32.8068C96.8625 32.8068 96.4181 32.6307 96.0659 32.2785C95.7137 31.9095 95.5376 31.4567 95.5376 30.92C95.5376 30.4001 95.7137 29.9556 96.0659 29.5867C96.4181 29.2177 96.8625 29.0332 97.3992 29.0332C97.9527 29.0332 98.3971 29.2177 98.7326 29.5867C99.0848 29.9556 99.2609 30.4001 99.2609 30.92C99.2609 31.4567 99.0848 31.9095 98.7326 32.2785C98.3971 32.6307 97.9527 32.8068 97.3992 32.8068Z" fill="white"/>
<path d="M89.524 46.9199V28.7312H92.8196V46.9199H89.524Z" fill="white"/>
<path d="M84.369 47.1715C83.7653 47.1715 83.2705 46.9702 82.8848 46.5677C82.499 46.1652 82.3062 45.6704 82.3062 45.0834C82.3062 44.4964 82.499 44.0016 82.8848 43.5991C83.2705 43.1966 83.7653 42.9954 84.369 42.9954C84.956 42.9954 85.4424 43.1966 85.8282 43.5991C86.2139 44.0016 86.4068 44.4964 86.4068 45.0834C86.4068 45.6704 86.2139 46.1652 85.8282 46.5677C85.4424 46.9702 84.956 47.1715 84.369 47.1715Z" fill="white"/>
<path d="M74.9735 46.9199V29.7124H78.2691V46.9199H74.9735ZM72.1307 37.6621V34.769H81.1119V37.6621H72.1307Z" fill="white"/>
<path d="M67.3837 46.9198V39.9513C67.3837 39.2301 67.1573 38.6431 66.7045 38.1903C66.2517 37.7375 65.6647 37.511 64.9435 37.511C64.4739 37.511 64.0546 37.6117 63.6856 37.8129C63.3167 38.0142 63.0232 38.2993 62.8051 38.6683C62.6039 39.0372 62.5032 39.4649 62.5032 39.9513L61.2202 39.2972C61.2202 38.3412 61.4215 37.511 61.824 36.8066C62.2433 36.0855 62.8135 35.5236 63.5347 35.1211C64.2726 34.7186 65.1028 34.5173 66.0252 34.5173C66.9141 34.5173 67.7108 34.7437 68.4152 35.1966C69.1196 35.6326 69.673 36.2113 70.0756 36.9324C70.4781 37.6368 70.6793 38.3999 70.6793 39.2217V46.9198H67.3837ZM59.2076 46.9198V34.7689H62.5032V46.9198H59.2076Z" fill="white"/>
<path d="M51.4091 47.1714C50.1344 47.1714 49.0024 46.9031 48.0128 46.3664C47.0233 45.8129 46.2351 45.0582 45.6481 44.1022C45.0778 43.1463 44.7927 42.0561 44.7927 40.8318C44.7927 39.6243 45.0695 38.5509 45.6229 37.6117C46.1931 36.6557 46.9646 35.901 47.9374 35.3475C48.9101 34.7773 49.9919 34.4922 51.1827 34.4922C52.3567 34.4922 53.3881 34.7605 54.277 35.2972C55.1826 35.8171 55.887 36.5383 56.3902 37.4607C56.9101 38.3664 57.1701 39.3978 57.1701 40.5551C57.1701 40.7731 57.1533 40.9995 57.1198 41.2343C57.103 41.4523 57.0611 41.7039 56.994 41.989L46.7801 42.0142V39.5488L55.4594 39.5236L54.126 40.5551C54.0925 39.8339 53.9583 39.2301 53.7235 38.7438C53.5055 38.2574 53.1785 37.8884 52.7424 37.6368C52.3231 37.3685 51.8032 37.2343 51.1827 37.2343C50.5286 37.2343 49.9583 37.3853 49.472 37.6872C48.9856 37.9723 48.6082 38.3832 48.3399 38.9199C48.0883 39.4398 47.9625 40.0603 47.9625 40.7815C47.9625 41.5194 48.0967 42.1651 48.365 42.7186C48.6502 43.2553 49.0527 43.6746 49.5726 43.9765C50.0925 44.2616 50.6963 44.4041 51.3839 44.4041C52.0045 44.4041 52.5663 44.3035 53.0694 44.1022C53.5726 43.8842 54.0086 43.5656 54.3776 43.1463L56.3147 45.0834C55.7277 45.771 55.0065 46.2909 54.1512 46.6431C53.3126 46.9953 52.3986 47.1714 51.4091 47.1714Z" fill="white"/>
<path d="M39.3581 46.92V34.769H42.6789V46.92H39.3581ZM41.0185 32.8068C40.4818 32.8068 40.0374 32.6307 39.6852 32.2785C39.333 31.9095 39.1569 31.4567 39.1569 30.92C39.1569 30.4001 39.333 29.9556 39.6852 29.5867C40.0374 29.2177 40.4818 29.0332 41.0185 29.0332C41.572 29.0332 42.0164 29.2177 42.3518 29.5867C42.704 29.9556 42.8801 30.4001 42.8801 30.92C42.8801 31.4567 42.704 31.9095 42.3518 32.2785C42.0164 32.6307 41.572 32.8068 41.0185 32.8068Z" fill="white"/>
<path d="M31.3653 46.9199V29.7124H34.6609V46.9199H31.3653ZM28.5226 37.6621V34.769H37.5037V37.6621H28.5226Z" fill="white"/>
<path d="M19.871 47.1714C18.7641 47.1714 17.7662 46.8947 16.8773 46.3412C15.9884 45.7878 15.2924 45.033 14.7893 44.0771C14.2861 43.1211 14.0345 42.0477 14.0345 40.8569C14.0345 39.6494 14.2861 38.5676 14.7893 37.6117C15.2924 36.6557 15.9884 35.901 16.8773 35.3475C17.7662 34.7941 18.7641 34.5173 19.871 34.5173C20.7431 34.5173 21.523 34.6934 22.2106 35.0456C22.8983 35.3978 23.4433 35.8926 23.8459 36.5299C24.2651 37.1505 24.4916 37.8549 24.5251 38.6431V43.0205C24.4916 43.8255 24.2651 44.5383 23.8459 45.1588C23.4433 45.7794 22.8983 46.2741 22.2106 46.6431C21.523 46.9953 20.7431 47.1714 19.871 47.1714ZM20.4748 44.1274C21.3972 44.1274 22.1435 43.8255 22.7138 43.2217C23.284 42.6012 23.5691 41.8045 23.5691 40.8318C23.5691 40.1945 23.435 39.6326 23.1666 39.1463C22.915 38.6431 22.5545 38.2574 22.0848 37.989C21.632 37.7039 21.0953 37.5614 20.4748 37.5614C19.871 37.5614 19.3343 37.7039 18.8647 37.989C18.4119 38.2574 18.0513 38.6431 17.783 39.1463C17.5314 39.6326 17.4056 40.1945 17.4056 40.8318C17.4056 41.4859 17.5314 42.0645 17.783 42.5676C18.0513 43.054 18.4119 43.4398 18.8647 43.7249C19.3343 43.9932 19.871 44.1274 20.4748 44.1274ZM23.393 46.9198V43.6494L23.9213 40.6808L23.393 37.7626V34.7689H26.6635V46.9198H23.393Z" fill="white"/>
<path d="M6.74213 47.1714C5.87001 47.1714 5.08175 46.9953 4.37735 46.6431C3.67295 46.2741 3.11111 45.7794 2.69182 45.1588C2.27253 44.5383 2.04612 43.8255 2.01258 43.0205V38.7186C2.04612 37.9136 2.27253 37.2008 2.69182 36.5802C3.12788 35.9429 3.68972 35.4398 4.37735 35.0708C5.08175 34.7018 5.87001 34.5173 6.74213 34.5173C7.86582 34.5173 8.8721 34.7941 9.76099 35.3475C10.6499 35.901 11.3459 36.6557 11.849 37.6117C12.369 38.5676 12.6289 39.6494 12.6289 40.8569C12.6289 42.0477 12.369 43.1211 11.849 44.0771C11.3459 45.033 10.6499 45.7878 9.76099 46.3412C8.8721 46.8947 7.86582 47.1714 6.74213 47.1714ZM0 52.0016V34.7689H3.29559V37.9639L2.74213 40.9073L3.27044 43.8507V52.0016H0ZM6.16351 44.1274C6.76729 44.1274 7.30397 43.9932 7.77357 43.7249C8.24317 43.4398 8.60376 43.054 8.85533 42.5676C9.12368 42.0645 9.25785 41.4859 9.25785 40.8318C9.25785 40.1945 9.12368 39.6326 8.85533 39.1463C8.60376 38.6431 8.24317 38.2574 7.77357 37.989C7.30397 37.7039 6.76729 37.5614 6.16351 37.5614C5.57651 37.5614 5.04821 37.7039 4.57861 37.989C4.10901 38.2574 3.74004 38.6431 3.47169 39.1463C3.22012 39.6326 3.09434 40.1945 3.09434 40.8318C3.09434 41.4859 3.22012 42.0645 3.47169 42.5676C3.74004 43.054 4.10062 43.4398 4.55345 43.7249C5.02305 43.9932 5.55974 44.1274 6.16351 44.1274Z" fill="white"/>
<path d="M94.8678 15.9815V13.043H106.467V15.9815H94.8678ZM99.1952 8.37744H102.165V20.6213H99.1952V8.37744Z" fill="#ADD5C8"/>
<path d="M108.401 7.60406V4.66554H120.001V7.60406H108.401ZM112.728 0H115.699V12.2438H112.728V0Z" fill="#ADD5C8"/>
<path d="M108.401 23.9587V21.1749H120.001V23.9587H108.401ZM112.728 16.7549H115.699V28.3543H112.728V16.7549Z" fill="#ADD5C8"/>
</svg>
