<svg width="118" height="52" viewBox="0 0 118 52" fill="none" xmlns="http://www.w3.org/2000/svg">
<path d="M94.1452 46.1378V34.1894H97.4106V46.1378H94.1452ZM95.7779 32.2598C95.2501 32.2598 94.8131 32.0866 94.4668 31.7403C94.1204 31.3775 93.9473 30.9322 93.9473 30.4044C93.9473 29.8932 94.1204 29.4561 94.4668 29.0933C94.8131 28.7305 95.2501 28.5491 95.7779 28.5491C96.3221 28.5491 96.7592 28.7305 97.089 29.0933C97.4353 29.4561 97.6085 29.8932 97.6085 30.4044C97.6085 30.9322 97.4353 31.3775 97.089 31.7403C96.7592 32.0866 96.3221 32.2598 95.7779 32.2598Z" fill="white"/>
<path d="M88.0322 46.1381V28.2524H91.2729V46.1381H88.0322Z" fill="white"/>
<path d="M82.9631 46.3853C82.3694 46.3853 81.8829 46.1874 81.5035 45.7916C81.1242 45.3958 80.9346 44.9093 80.9346 44.3321C80.9346 43.7548 81.1242 43.2683 81.5035 42.8725C81.8829 42.4767 82.3694 42.2788 82.9631 42.2788C83.5403 42.2788 84.0186 42.4767 84.3979 42.8725C84.7772 43.2683 84.9669 43.7548 84.9669 44.3321C84.9669 44.9093 84.7772 45.3958 84.3979 45.7916C84.0186 46.1874 83.5403 46.3853 82.9631 46.3853Z" fill="white"/>
<path d="M73.7231 46.1381V29.2173H76.9638V46.1381H73.7231ZM70.9277 37.0345V34.1896H79.7592V37.0345H70.9277Z" fill="white"/>
<path d="M66.2616 46.138V39.2856C66.2616 38.5764 66.0389 37.9992 65.5936 37.5539C65.1483 37.1086 64.5711 36.886 63.862 36.886C63.4002 36.886 62.9879 36.9849 62.6251 37.1828C62.2622 37.3807 61.9736 37.6611 61.7592 38.0239C61.5613 38.3867 61.4624 38.8073 61.4624 39.2856L60.2007 38.6424C60.2007 37.7023 60.3986 36.886 60.7944 36.1933C61.2067 35.4841 61.7675 34.9317 62.4766 34.5359C63.2023 34.14 64.0186 33.9421 64.9257 33.9421C65.7998 33.9421 66.5832 34.1648 67.2758 34.6101C67.9685 35.0389 68.5127 35.6078 68.9085 36.317C69.3043 37.0097 69.5022 37.76 69.5022 38.5682V46.138H66.2616ZM58.2217 46.138V34.1895H61.4624V46.138H58.2217Z" fill="white"/>
<path d="M50.552 46.3855C49.2986 46.3855 48.1854 46.1216 47.2124 45.5939C46.2393 45.0496 45.4642 44.3075 44.887 43.3674C44.3263 42.4274 44.0459 41.3554 44.0459 40.1515C44.0459 38.964 44.318 37.9086 44.8623 36.985C45.423 36.045 46.1816 35.3028 47.1382 34.7586C48.0947 34.1978 49.1584 33.9175 50.3294 33.9175C51.4838 33.9175 52.4981 34.1814 53.3722 34.7091C54.2627 35.2204 54.9554 35.9295 55.4501 36.8366C55.9614 37.7271 56.217 38.7414 56.217 39.8794C56.217 40.0938 56.2005 40.3164 56.1676 40.5473C56.1511 40.7617 56.1098 41.0091 56.0439 41.2894L46.0002 41.3142V38.8898L54.5348 38.8651L53.2237 39.8794C53.1907 39.1702 53.0588 38.5765 52.8279 38.0982C52.6135 37.6199 52.2919 37.2571 51.8631 37.0097C51.4508 36.7459 50.9396 36.6139 50.3294 36.6139C49.6862 36.6139 49.1254 36.7624 48.6472 37.0592C48.1689 37.3396 47.7978 37.7436 47.534 38.2714C47.2866 38.7826 47.1629 39.3928 47.1629 40.102C47.1629 40.8276 47.2948 41.4626 47.5587 42.0068C47.8391 42.5346 48.2349 42.9469 48.7461 43.2437C49.2574 43.5241 49.8511 43.6643 50.5273 43.6643C51.1375 43.6643 51.69 43.5653 52.1847 43.3674C52.6795 43.153 53.1083 42.8397 53.4711 42.4274L55.3759 44.3322C54.7987 45.0084 54.0896 45.5196 53.2485 45.866C52.4239 46.2123 51.525 46.3855 50.552 46.3855Z" fill="white"/>
<path d="M38.7008 46.1378V34.1894H41.9663V46.1378H38.7008ZM40.3335 32.2598C39.8058 32.2598 39.3688 32.0866 39.0224 31.7403C38.6761 31.3775 38.5029 30.9322 38.5029 30.4044C38.5029 29.8932 38.6761 29.4561 39.0224 29.0933C39.3688 28.7305 39.8058 28.5491 40.3335 28.5491C40.8778 28.5491 41.3148 28.7305 41.6447 29.0933C41.991 29.4561 42.1642 29.8932 42.1642 30.4044C42.1642 30.9322 41.991 31.3775 41.6447 31.7403C41.3148 32.0866 40.8778 32.2598 40.3335 32.2598Z" fill="white"/>
<path d="M30.8423 46.1381V29.2173H34.083V46.1381H30.8423ZM28.0469 37.0345V34.1896H36.8784V37.0345H28.0469Z" fill="white"/>
<path d="M19.54 46.3854C18.4515 46.3854 17.4703 46.1133 16.5962 45.569C15.7221 45.0248 15.0377 44.2827 14.5429 43.3426C14.0482 42.4026 13.8008 41.3471 13.8008 40.1761C13.8008 38.9887 14.0482 37.925 14.5429 36.9849C15.0377 36.0449 15.7221 35.3027 16.5962 34.7585C17.4703 34.2143 18.4515 33.9421 19.54 33.9421C20.3976 33.9421 21.1645 34.1153 21.8407 34.4616C22.5168 34.808 23.0528 35.2945 23.4486 35.9212C23.8609 36.5314 24.0836 37.2241 24.1166 37.9992V42.3036C24.0836 43.0952 23.8609 43.7961 23.4486 44.4063C23.0528 45.0165 22.5168 45.5031 21.8407 45.8659C21.1645 46.2122 20.3976 46.3854 19.54 46.3854ZM20.1337 43.3921C21.0408 43.3921 21.7747 43.0952 22.3354 42.5015C22.8961 41.8913 23.1765 41.1079 23.1765 40.1514C23.1765 39.5247 23.0446 38.9722 22.7807 38.4939C22.5333 37.9992 22.1787 37.6199 21.717 37.356C21.2717 37.0756 20.7439 36.9354 20.1337 36.9354C19.54 36.9354 19.0123 37.0756 18.5505 37.356C18.1052 37.6199 17.7506 37.9992 17.4868 38.4939C17.2394 38.9722 17.1157 39.5247 17.1157 40.1514C17.1157 40.7946 17.2394 41.3636 17.4868 41.8583C17.7506 42.3366 18.1052 42.7159 18.5505 42.9963C19.0123 43.2601 19.54 43.3921 20.1337 43.3921ZM23.0033 46.138V42.9221L23.5228 40.003L23.0033 37.1334V34.1895H26.2193V46.138H23.0033Z" fill="white"/>
<path d="M6.6298 46.3854C5.77222 46.3854 4.99709 46.2122 4.30442 45.8659C3.61176 45.5031 3.05927 45.0165 2.64697 44.4063C2.23467 43.7961 2.01203 43.0952 1.97905 42.3036V38.0734C2.01203 37.2818 2.23467 36.5809 2.64697 35.9707C3.07577 35.344 3.62825 34.8492 4.30442 34.4864C4.99709 34.1236 5.77222 33.9421 6.6298 33.9421C7.73477 33.9421 8.72429 34.2143 9.59837 34.7585C10.4724 35.3027 11.1569 36.0449 11.6516 36.9849C12.1629 37.925 12.4185 38.9887 12.4185 40.1761C12.4185 41.3471 12.1629 42.4026 11.6516 43.3426C11.1569 44.2827 10.4724 45.0248 9.59837 45.569C8.72429 46.1133 7.73477 46.3854 6.6298 46.3854ZM0 51.1351V34.1895H3.24069V37.3313L2.69645 40.2256L3.21595 43.12V51.1351H0ZM6.06083 43.3921C6.65454 43.3921 7.18229 43.2601 7.64406 42.9963C8.10584 42.7159 8.46042 42.3366 8.7078 41.8583C8.97167 41.3636 9.10361 40.7946 9.10361 40.1514C9.10361 39.5247 8.97167 38.9722 8.7078 38.4939C8.46042 37.9992 8.10584 37.6199 7.64406 37.356C7.18229 37.0756 6.65454 36.9354 6.06083 36.9354C5.48361 36.9354 4.96411 37.0756 4.50233 37.356C4.04055 37.6199 3.67773 37.9992 3.41385 38.4939C3.16647 38.9722 3.04278 39.5247 3.04278 40.1514C3.04278 40.7946 3.16647 41.3636 3.41385 41.8583C3.67773 42.3366 4.03231 42.7159 4.47759 42.9963C4.93937 43.2601 5.46711 43.3921 6.06083 43.3921Z" fill="white"/>
<path d="M93.2861 15.7152V12.8256H104.692V15.7152H93.2861ZM97.5414 8.23779H100.462V20.2776H97.5414V8.23779Z" fill="white"/>
<path d="M106.594 7.47738V4.58781H118V7.47738H106.594ZM110.849 0H113.77V12.0398H110.849V0Z" fill="white"/>
<path d="M106.594 23.5592V20.8217H118V23.5592H106.594ZM110.849 16.4753H113.77V27.8815H110.849V16.4753Z" fill="white"/>
</svg>
