<svg width="118" height="52" viewBox="0 0 118 52" fill="none" xmlns="http://www.w3.org/2000/svg">
<path d="M94.1452 46.1381V34.1896H97.4106V46.1381H94.1452ZM95.7779 32.26C95.2501 32.26 94.8131 32.0869 94.4668 31.7405C94.1204 31.3777 93.9473 30.9324 93.9473 30.4047C93.9473 29.8934 94.1204 29.4564 94.4668 29.0936C94.8131 28.7307 95.2501 28.5493 95.7779 28.5493C96.3221 28.5493 96.7592 28.7307 97.089 29.0936C97.4353 29.4564 97.6085 29.8934 97.6085 30.4047C97.6085 30.9324 97.4353 31.3777 97.089 31.7405C96.7592 32.0869 96.3221 32.26 95.7779 32.26Z" fill="#103034"/>
<path d="M88.0332 46.1381V28.2524H91.2739V46.1381H88.0332Z" fill="#103034"/>
<path d="M82.9641 46.3853C82.3704 46.3853 81.8838 46.1874 81.5045 45.7916C81.1252 45.3958 80.9355 44.9093 80.9355 44.3321C80.9355 43.7548 81.1252 43.2683 81.5045 42.8725C81.8838 42.4767 82.3704 42.2788 82.9641 42.2788C83.5413 42.2788 84.0196 42.4767 84.3989 42.8725C84.7782 43.2683 84.9679 43.7548 84.9679 44.3321C84.9679 44.9093 84.7782 45.3958 84.3989 45.7916C84.0196 46.1874 83.5413 46.3853 82.9641 46.3853Z" fill="#103034"/>
<path d="M73.7231 46.1381V29.2173H76.9638V46.1381H73.7231ZM70.9277 37.0345V34.1896H79.7592V37.0345H70.9277Z" fill="#103034"/>
<path d="M66.2625 46.1383V39.2858C66.2625 38.5766 66.0399 37.9994 65.5946 37.5541C65.1493 37.1089 64.5721 36.8862 63.8629 36.8862C63.4012 36.8862 62.9889 36.9852 62.626 37.1831C62.2632 37.381 61.9746 37.6613 61.7602 38.0242C61.5623 38.387 61.4633 38.8075 61.4633 39.2858L60.2017 38.6426C60.2017 37.7026 60.3996 36.8862 60.7954 36.1935C61.2077 35.4844 61.7684 34.9319 62.4776 34.5361C63.2033 34.1403 64.0196 33.9424 64.9267 33.9424C65.8008 33.9424 66.5841 34.165 67.2768 34.6103C67.9695 35.0391 68.5137 35.6081 68.9095 36.3172C69.3053 37.0099 69.5032 37.7603 69.5032 38.5684V46.1383H66.2625ZM58.2227 46.1383V34.1898H61.4633V46.1383H58.2227Z" fill="#103034"/>
<path d="M50.551 46.3855C49.2976 46.3855 48.1844 46.1216 47.2114 45.5939C46.2384 45.0496 45.4632 44.3075 44.886 43.3674C44.3253 42.4274 44.0449 41.3554 44.0449 40.1515C44.0449 38.964 44.317 37.9086 44.8613 36.985C45.422 36.045 46.1806 35.3028 47.1372 34.7586C48.0937 34.1978 49.1575 33.9175 50.3284 33.9175C51.4828 33.9175 52.4971 34.1814 53.3712 34.7091C54.2617 35.2204 54.9544 35.9295 55.4492 36.8366C55.9604 37.7271 56.2161 38.7414 56.2161 39.8794C56.2161 40.0938 56.1996 40.3164 56.1666 40.5473C56.1501 40.7617 56.1089 41.0091 56.0429 41.2894L45.9992 41.3142V38.8898L54.5339 38.8651L53.2227 39.8794C53.1898 39.1702 53.0578 38.5765 52.8269 38.0982C52.6125 37.6199 52.2909 37.2571 51.8622 37.0097C51.4499 36.7459 50.9386 36.6139 50.3284 36.6139C49.6852 36.6139 49.1245 36.7624 48.6462 37.0592C48.1679 37.3396 47.7969 37.7436 47.533 38.2714C47.2856 38.7826 47.1619 39.3928 47.1619 40.102C47.1619 40.8276 47.2939 41.4626 47.5577 42.0068C47.8381 42.5346 48.2339 42.9469 48.7452 43.2437C49.2564 43.5241 49.8501 43.6643 50.5263 43.6643C51.1365 43.6643 51.689 43.5653 52.1837 43.3674C52.6785 43.153 53.1073 42.8397 53.4701 42.4274L55.375 44.3322C54.7977 45.0084 54.0886 45.5196 53.2475 45.866C52.4229 46.2123 51.5241 46.3855 50.551 46.3855Z" fill="#103034"/>
<path d="M38.7018 46.1381V34.1896H41.9672V46.1381H38.7018ZM40.3345 32.26C39.8068 32.26 39.3697 32.0869 39.0234 31.7405C38.6771 31.3777 38.5039 30.9324 38.5039 30.4047C38.5039 29.8934 38.6771 29.4564 39.0234 29.0936C39.3697 28.7307 39.8068 28.5493 40.3345 28.5493C40.8788 28.5493 41.3158 28.7307 41.6456 29.0936C41.992 29.4564 42.1651 29.8934 42.1651 30.4047C42.1651 30.9324 41.992 31.3777 41.6456 31.7405C41.3158 32.0869 40.8788 32.26 40.3345 32.26Z" fill="#103034"/>
<path d="M30.8423 46.1381V29.2173H34.083V46.1381H30.8423ZM28.0469 37.0345V34.1896H36.8784V37.0345H28.0469Z" fill="#103034"/>
<path d="M19.54 46.3856C18.4515 46.3856 17.4703 46.1135 16.5962 45.5693C15.7221 45.025 15.0377 44.2829 14.5429 43.3429C14.0482 42.4028 13.8008 41.3473 13.8008 40.1764C13.8008 38.9889 14.0482 37.9252 14.5429 36.9852C15.0377 36.0451 15.7221 35.303 16.5962 34.7587C17.4703 34.2145 18.4515 33.9424 19.54 33.9424C20.3976 33.9424 21.1645 34.1155 21.8407 34.4619C22.5168 34.8082 23.0528 35.2947 23.4486 35.9214C23.8609 36.5316 24.0836 37.2243 24.1166 37.9994V42.3039C24.0836 43.0955 23.8609 43.7964 23.4486 44.4066C23.0528 45.0168 22.5168 45.5033 21.8407 45.8661C21.1645 46.2125 20.3976 46.3856 19.54 46.3856ZM20.1337 43.3923C21.0408 43.3923 21.7747 43.0955 22.3354 42.5018C22.8961 41.8916 23.1765 41.1082 23.1765 40.1516C23.1765 39.5249 23.0446 38.9725 22.7807 38.4942C22.5333 37.9994 22.1787 37.6201 21.717 37.3562C21.2717 37.0759 20.7439 36.9357 20.1337 36.9357C19.54 36.9357 19.0123 37.0759 18.5505 37.3562C18.1052 37.6201 17.7506 37.9994 17.4868 38.4942C17.2394 38.9725 17.1157 39.5249 17.1157 40.1516C17.1157 40.7948 17.2394 41.3638 17.4868 41.8586C17.7506 42.3368 18.1052 42.7162 18.5505 42.9965C19.0123 43.2604 19.54 43.3923 20.1337 43.3923ZM23.0033 46.1383V42.9223L23.5228 40.0032L23.0033 37.1336V34.1898H26.2193V46.1383H23.0033Z" fill="#103034"/>
<path d="M6.6298 46.3856C5.77222 46.3856 4.99709 46.2125 4.30442 45.8661C3.61176 45.5033 3.05927 45.0168 2.64697 44.4066C2.23467 43.7964 2.01203 43.0955 1.97905 42.3039V38.0736C2.01203 37.282 2.23467 36.5811 2.64697 35.9709C3.07577 35.3442 3.62825 34.8494 4.30442 34.4866C4.99709 34.1238 5.77222 33.9424 6.6298 33.9424C7.73477 33.9424 8.72429 34.2145 9.59837 34.7587C10.4724 35.303 11.1569 36.0451 11.6516 36.9852C12.1629 37.9252 12.4185 38.9889 12.4185 40.1764C12.4185 41.3473 12.1629 42.4028 11.6516 43.3429C11.1569 44.2829 10.4724 45.025 9.59837 45.5693C8.72429 46.1135 7.73477 46.3856 6.6298 46.3856ZM0 51.1353V34.1898H3.24069V37.3315L2.69645 40.2259L3.21595 43.1202V51.1353H0ZM6.06083 43.3923C6.65454 43.3923 7.18229 43.2604 7.64406 42.9965C8.10584 42.7162 8.46042 42.3368 8.7078 41.8586C8.97167 41.3638 9.10361 40.7948 9.10361 40.1516C9.10361 39.5249 8.97167 38.9725 8.7078 38.4942C8.46042 37.9994 8.10584 37.6201 7.64406 37.3562C7.18229 37.0759 6.65454 36.9357 6.06083 36.9357C5.48361 36.9357 4.96411 37.0759 4.50233 37.3562C4.04055 37.6201 3.67773 37.9994 3.41385 38.4942C3.16647 38.9725 3.04278 39.5249 3.04278 40.1516C3.04278 40.7948 3.16647 41.3638 3.41385 41.8586C3.67773 42.3368 4.03231 42.7162 4.47759 42.9965C4.93937 43.2604 5.46711 43.3923 6.06083 43.3923Z" fill="#103034"/>
<path d="M93.2871 15.7152V12.8256H104.693V15.7152H93.2871ZM97.5424 8.23779H100.463V20.2776H97.5424V8.23779Z" fill="black"/>
<path d="M106.594 7.47738V4.58781H118V7.47738H106.594ZM110.849 0H113.77V12.0398H110.849V0Z" fill="black"/>
<path d="M106.594 23.5594V20.8219H118V23.5594H106.594ZM110.849 16.4756H113.77V27.8818H110.849V16.4756Z" fill="black"/>
</svg>
