<svg width="34" height="35" viewBox="0 0 34 35" fill="none" xmlns="http://www.w3.org/2000/svg">
<g clip-path="url(#clip0_223_652)">
<path d="M26.8619 15.4985L12.3374 34.7923C12.2365 34.9249 12.0811 35.0015 11.9177 35.0001C11.8327 35.0028 11.7477 34.981 11.6733 34.94C11.4449 34.8196 11.3333 34.5476 11.4077 34.2946L15.3232 20.9729H7.55619C7.35565 20.9729 7.17369 20.8567 7.08339 20.6721C7.00105 20.4958 7.01699 20.2866 7.12589 20.1253L21.2148 0.22461C21.3582 0.0208999 21.6186 -0.0570311 21.8457 0.0386729C22.0715 0.133008 22.2069 0.375002 22.1711 0.623838L20.3064 14.6182H26.4424C26.6456 14.6182 26.8315 14.7372 26.9205 14.9245C27.0081 15.1118 26.9854 15.3345 26.8619 15.4985Z" fill="black"/>
</g>
<defs>
<clipPath id="clip0_223_652">
<rect width="34" height="35" fill="white"/>
</clipPath>
</defs>
</svg>
