<svg width="32" height="32" viewBox="0 0 32 32" fill="none" xmlns="http://www.w3.org/2000/svg">
<g clip-path="url(#clip0_223_669)">
<path d="M18.653 17.6797C18.0543 17.6797 17.5093 17.9234 17.1118 18.3197C16.7155 18.7172 16.4705 19.2622 16.4705 19.8609C16.4705 20.4622 16.7155 21.0059 17.1118 21.4034C17.5068 21.7984 18.0518 22.0422 18.653 22.0422C19.238 22.0422 19.7693 21.8097 20.1618 21.4334L20.1955 21.4022C20.5905 21.0072 20.8343 20.4609 20.8343 19.8597C20.8343 19.2584 20.5893 18.7147 20.193 18.3172C19.798 17.9222 19.253 17.6784 18.6518 17.6784L18.653 17.6797ZM17.5818 3.98847L19.3092 1.6372C19.4917 1.38846 19.8405 1.33471 20.0892 1.5172C20.2205 1.61345 20.298 1.75595 20.3142 1.90722L20.6355 4.80722L22.913 2.98473C23.153 2.79223 23.5055 2.82972 23.698 3.06972C23.7992 3.19597 23.8367 3.35347 23.8155 3.50224L23.3755 6.38848L26.048 5.21596C26.3305 5.09346 26.6593 5.22221 26.783 5.50471C26.8468 5.65221 26.843 5.81346 26.783 5.95095L25.6105 8.62346L28.4967 8.18222C28.8017 8.13597 29.0868 8.34722 29.133 8.65223C29.1592 8.82348 29.1042 8.98849 28.9967 9.10849L27.1917 11.3622L30.0917 11.6835C30.398 11.7172 30.6192 11.9935 30.5868 12.301C30.568 12.466 30.4805 12.606 30.3543 12.696L28.0105 14.4198L30.7305 15.481C31.018 15.5935 31.1593 15.9173 31.0468 16.2047C30.9843 16.3647 30.8543 16.4797 30.7018 16.5322L28.008 17.5822L30.3605 19.311C30.6093 19.4935 30.663 19.8422 30.4805 20.091C30.3843 20.2222 30.2418 20.2997 30.0905 20.316L27.1905 20.6372L29.013 22.9147C29.2055 23.1547 29.168 23.5072 28.928 23.6997C28.8018 23.8009 28.6443 23.8384 28.4955 23.8172L25.6093 23.3772L26.7818 26.0497C26.9043 26.3322 26.7755 26.661 26.493 26.7847C26.3455 26.8485 26.1843 26.8447 26.0468 26.7847L23.3743 25.6122L23.8155 28.4984C23.8618 28.8034 23.6505 29.0885 23.3455 29.1347C23.1742 29.1609 23.0092 29.106 22.8892 28.9985L20.6355 27.1935L20.3142 30.0935C20.2805 30.3997 20.0042 30.6209 19.6967 30.5885C19.5317 30.5697 19.3917 30.4822 19.3017 30.356L17.578 28.0122L16.5167 30.7322C16.4042 31.0197 16.0805 31.161 15.793 31.0485C15.633 30.986 15.518 30.856 15.4655 30.7035L14.4155 28.0097L12.6868 30.3622C12.5043 30.611 12.1555 30.6647 11.9068 30.4822C11.7755 30.386 11.698 30.2435 11.6818 30.0922L11.3605 27.1922L9.08303 29.0147C8.84303 29.2072 8.49052 29.1697 8.29804 28.9297C8.19679 28.8035 8.15929 28.646 8.18054 28.4972L8.62054 25.611L5.94802 26.7835C5.66552 26.906 5.33676 26.7772 5.21302 26.4947C5.14927 26.3472 5.15302 26.186 5.21302 26.0485L6.38553 23.376L3.49929 23.8172C3.19429 23.8635 2.90927 23.6522 2.86303 23.3472C2.83678 23.176 2.89178 23.0109 2.99928 22.8909L4.80427 20.6372L1.90427 20.3159C1.59802 20.2822 1.37679 20.0059 1.40927 19.6984C1.42802 19.5334 1.51552 19.3934 1.64176 19.3034L3.98676 17.5797L1.26925 16.5197C0.981752 16.4097 0.839237 16.0859 0.949253 15.7972C1.008 15.6459 1.1255 15.5347 1.26675 15.4784L3.98675 14.4172L1.63424 12.6897C1.38549 12.5072 1.33174 12.1584 1.51424 11.9097C1.61049 11.7785 1.75299 11.701 1.90426 11.6847L4.80426 11.3635L2.98176 9.08595C2.78926 8.84595 2.82676 8.49344 3.06676 8.30096C3.19301 8.19971 3.35051 8.16221 3.49927 8.18346L6.38551 8.62346L5.21425 5.95095C5.09175 5.66845 5.2205 5.33969 5.503 5.21594C5.6505 5.15219 5.81175 5.15594 5.94924 5.21594L8.62175 6.38845L8.1805 3.50221C8.13425 3.19721 8.3455 2.9122 8.65052 2.86596C8.82177 2.83971 8.98677 2.89471 9.10677 3.00221L11.3605 4.8072L11.6818 1.90845C11.7155 1.6022 11.9918 1.38096 12.2993 1.41344C12.4643 1.43219 12.6043 1.51969 12.6943 1.64594L14.4168 3.98968L15.478 1.27093C15.5905 0.983429 15.9143 0.842194 16.2018 0.95468C16.353 1.01343 16.4643 1.13093 16.518 1.27093L17.5793 3.98968L17.5818 3.98847ZM19.1643 9.88095L11.8843 21.5274C11.7205 21.7898 11.8018 22.1336 12.0643 22.2973C12.3268 22.4611 12.6705 22.3798 12.8342 22.1173L20.1142 10.4709C20.278 10.2084 20.1967 9.86469 19.9342 9.70095C19.6717 9.5372 19.328 9.61845 19.1643 9.88095ZM13.3454 9.9572C12.7429 9.9572 12.1966 10.2022 11.8029 10.5984C11.4079 10.9935 11.1641 11.5384 11.1641 12.1397C11.1641 12.7409 11.4091 13.2847 11.8054 13.6822C12.2004 14.0772 12.7454 14.3209 13.3466 14.3209C13.9454 14.3209 14.4904 14.0772 14.8879 13.6809C15.2841 13.2834 15.5291 12.7397 15.5291 12.1397C15.5291 11.5384 15.2841 10.9947 14.8879 10.5972C14.4929 10.2022 13.9479 9.95845 13.3466 9.95845L13.3454 9.9572ZM14.0966 11.3872C14.2879 11.5785 14.4054 11.8447 14.4054 12.1385C14.4054 12.4335 14.2879 12.6997 14.0941 12.891C13.9041 13.081 13.6379 13.1997 13.3429 13.1997C13.0491 13.1997 12.7829 13.0822 12.5916 12.891C12.4004 12.6985 12.2829 12.4335 12.2829 12.1397C12.2829 11.8447 12.4016 11.5785 12.5929 11.3885C12.7841 11.1972 13.0504 11.0785 13.3441 11.0785C13.6391 11.0785 13.9054 11.1972 14.0954 11.3872L14.0966 11.3872ZM19.4042 19.1085C19.5954 19.2997 19.7129 19.566 19.7129 19.8598C19.7129 20.1535 19.5942 20.4198 19.3917 20.6223C19.1904 20.811 18.9342 20.9223 18.6504 20.9223C18.3567 20.9223 18.0904 20.8048 17.8991 20.6135C17.7079 20.421 17.5904 20.156 17.5904 19.8622C17.5904 19.5672 17.7079 19.301 17.9016 19.1097C18.0916 18.9197 18.3579 18.801 18.6529 18.801C18.9479 18.801 19.2142 18.9197 19.4042 19.1097L19.4042 19.1085Z" fill="black"/>
</g>
<defs>
<clipPath id="clip0_223_669">
<rect width="32" height="32" fill="white"/>
</clipPath>
</defs>
</svg>
