<svg width="32" height="32" viewBox="0 0 32 32" fill="none" xmlns="http://www.w3.org/2000/svg">
<path d="M16.0016 3.4873C15.4253 3.4873 14.9453 3.9673 14.9453 4.54356V7.19982C14.9453 7.77607 15.4253 8.25607 16.0016 8.25607C16.5778 8.25607 17.0578 7.77607 17.0578 7.19982V4.54356C17.0891 3.9673 16.6091 3.4873 16.0016 3.4873Z" fill="black"/>
<path d="M11.1376 8.25644C11.2976 8.70393 11.7138 8.96019 12.1301 8.96019C12.2576 8.96019 12.3863 8.92769 12.4826 8.89644C13.0264 8.70394 13.3151 8.09644 13.1226 7.52018L12.2264 5.02392C12.0339 4.48018 11.4264 4.19141 10.8501 4.38392C10.3064 4.57642 10.0176 5.18392 10.2101 5.76018L11.1376 8.25644Z" fill="black"/>
<path d="M19.4883 8.89643C19.6158 8.92892 19.7445 8.96018 19.8408 8.96018C20.2883 8.96018 20.6733 8.70393 20.8333 8.25643L21.7608 5.76018C21.9533 5.21643 21.6645 4.60766 21.1208 4.38392C20.577 4.19142 19.9683 4.48017 19.7445 5.02392L18.8483 7.52018C18.657 8.06392 18.9445 8.67268 19.4883 8.89643Z" fill="black"/>
<path d="M6.56158 19.4562C8.48158 19.4562 10.0489 17.8887 10.0489 15.9688C10.0489 14.0489 8.48145 12.4814 6.56158 12.4814C4.64171 12.4814 3.07422 14.0489 3.07422 15.9688C3.07422 17.9201 4.64171 19.4562 6.56158 19.4562Z" fill="black"/>
<path d="M13.3446 11.0075C12.512 10.975 11.8083 11.615 11.8083 12.4475V13.3438C11.8721 16.4475 11.2008 18.6564 9.85579 19.7764C9.69579 19.9039 9.50328 20.0639 9.34328 20.1927C8.54328 20.7364 7.58328 21.0564 6.55953 21.0564C5.34328 21.0564 4.25579 20.6402 3.39205 19.9364C1.95329 20.5439 0.800781 21.7602 0.800781 23.7764V27.7764C0.800781 28.1927 1.12078 28.5127 1.53704 28.5127H11.617C12.0333 28.5127 12.3533 28.1927 12.3533 27.7764V23.7764V23.3927C12.2895 22.3689 12.5133 21.3452 13.0896 20.4802C14.2421 18.7527 14.817 16.3528 14.7533 13.2802V12.5127C14.7208 11.7439 14.1133 11.04 13.3446 11.0075Z" fill="black"/>
<path d="M25.4405 19.4562C27.3605 19.4562 28.9278 17.8887 28.9278 15.9688C28.9278 14.0489 27.3604 12.4814 25.4405 12.4814C23.5206 12.4814 21.9531 14.0489 21.9531 15.9688C21.9531 17.9201 23.5206 19.4562 25.4405 19.4562Z" fill="black"/>
<path d="M28.6089 19.8725C27.7452 20.5762 26.6252 20.9925 25.4414 20.9925C24.4177 20.9925 23.4577 20.6725 22.6577 20.1287C22.4977 20.0012 22.3052 19.8725 22.1452 19.7125C20.8327 18.625 20.1614 16.3851 20.1927 13.2798V12.3836C20.1927 11.5511 19.4889 10.9111 18.6564 10.9436C17.8889 10.9761 17.2802 11.6798 17.2802 12.4798V13.2473C17.2164 16.2873 17.7927 18.72 18.9439 20.4473C19.5202 21.3111 19.7439 22.3348 19.6802 23.3598V23.7436V27.7436C19.6802 28.1598 20.0002 28.4798 20.4164 28.4798H30.4964C30.9127 28.4798 31.2327 28.1598 31.2327 27.7436L31.2339 23.7762C31.2014 21.76 30.0489 20.5435 28.6089 19.8725Z" fill="black"/>
</svg>
