<svg xmlns="http://www.w3.org/2000/svg" width="120" height="52" viewBox="0 0 120 52" fill="none"><path d="M95.7403 46.6457V34.4948H99.0611V46.6457H95.7403ZM97.4007 32.5325C96.864 32.5325 96.4196 32.3564 96.0674 32.0042C95.7152 31.6352 95.5391 31.1824 95.5391 30.6457C95.5391 30.1258 95.7152 29.6813 96.0674 29.3124C96.4196 28.9434 96.864 28.7589 97.4007 28.7589C97.9542 28.7589 98.3986 28.9434 98.734 29.3124C99.0862 29.6813 99.2623 30.1258 99.2623 30.6457C99.2623 31.1824 99.0862 31.6352 98.734 32.0042C98.3986 32.3564 97.9542 32.5325 97.4007 32.5325Z" fill="#103034"></path><path d="M89.5234 46.6457V28.457H92.819V46.6457H89.5234Z" fill="#103034"></path><path d="M84.3695 46.8973C83.7658 46.8973 83.271 46.696 82.8853 46.2935C82.4995 45.891 82.3066 45.3962 82.3066 44.8092C82.3066 44.2222 82.4995 43.7275 82.8853 43.325C83.271 42.9224 83.7658 42.7212 84.3695 42.7212C84.9565 42.7212 85.4429 42.9224 85.8287 43.325C86.2144 43.7275 86.4073 44.2222 86.4073 44.8092C86.4073 45.3962 86.2144 45.891 85.8287 46.2935C85.4429 46.696 84.9565 46.8973 84.3695 46.8973Z" fill="#103034"></path><path d="M74.9736 46.6457V29.4381H78.2692V46.6457H74.9736ZM72.1309 37.3878V34.4947H81.112V37.3878H72.1309Z" fill="#103034"></path><path d="M67.3831 46.6457V39.6771C67.3831 38.956 67.1567 38.369 66.7039 37.9161C66.2511 37.4633 65.6641 37.2369 64.9429 37.2369C64.4733 37.2369 64.054 37.3375 63.685 37.5388C63.316 37.74 63.0225 38.0251 62.8045 38.3941C62.6033 38.7631 62.5026 39.1908 62.5026 39.6771L61.2196 39.023C61.2196 38.0671 61.4209 37.2369 61.8234 36.5325C62.2427 35.8113 62.8129 35.2495 63.5341 34.8469C64.272 34.4444 65.1022 34.2432 66.0246 34.2432C66.9135 34.2432 67.7102 34.4696 68.4146 34.9224C69.119 35.3585 69.6724 35.9371 70.075 36.6583C70.4775 37.3627 70.6787 38.1258 70.6787 38.9476V46.6457H67.3831ZM59.207 46.6457V34.4947H62.5026V46.6457H59.207Z" fill="#103034"></path><path d="M51.4093 46.8973C50.1347 46.8973 49.0026 46.6289 48.0131 46.0922C47.0236 45.5388 46.2353 44.7841 45.6483 43.8281C45.0781 42.8721 44.793 41.782 44.793 40.5576C44.793 39.3501 45.0697 38.2767 45.6232 37.3375C46.1934 36.3815 46.9649 35.6268 47.9376 35.0734C48.9104 34.5031 49.9921 34.218 51.1829 34.218C52.3569 34.218 53.3884 34.4864 54.2772 35.023C55.1829 35.543 55.8873 36.2641 56.3905 37.1866C56.9104 38.0922 57.1703 39.1237 57.1703 40.2809C57.1703 40.4989 57.1536 40.7254 57.12 40.9602C57.1032 41.1782 57.0613 41.4298 56.9942 41.7149L46.7804 41.74V39.2746L55.4596 39.2495L54.1263 40.2809C54.0928 39.5597 53.9586 38.956 53.7238 38.4696C53.5058 37.9832 53.1787 37.6142 52.7427 37.3627C52.3234 37.0943 51.8035 36.9602 51.1829 36.9602C50.5288 36.9602 49.9586 37.1111 49.4722 37.413C48.9858 37.6981 48.6085 38.109 48.3401 38.6457C48.0886 39.1656 47.9628 39.7862 47.9628 40.5073C47.9628 41.2453 48.097 41.891 48.3653 42.4444C48.6504 42.9811 49.0529 43.4004 49.5728 43.7023C50.0928 43.9874 50.6965 44.13 51.3842 44.13C52.0047 44.13 52.5666 44.0293 53.0697 43.8281C53.5728 43.6101 54.0089 43.2914 54.3779 42.8721L56.315 44.8092C55.728 45.4968 55.0068 46.0168 54.1515 46.369C53.3129 46.7212 52.3988 46.8973 51.4093 46.8973Z" fill="#103034"></path><path d="M39.3575 46.6457V34.4948H42.6783V46.6457H39.3575ZM41.0179 32.5325C40.4812 32.5325 40.0368 32.3564 39.6845 32.0042C39.3323 31.6352 39.1562 31.1824 39.1562 30.6457C39.1562 30.1258 39.3323 29.6813 39.6845 29.3124C40.0368 28.9434 40.4812 28.7589 41.0179 28.7589C41.5713 28.7589 42.0158 28.9434 42.3512 29.3124C42.7034 29.6813 42.8795 30.1258 42.8795 30.6457C42.8795 31.1824 42.7034 31.6352 42.3512 32.0042C42.0158 32.3564 41.5713 32.5325 41.0179 32.5325Z" fill="#103034"></path><path d="M31.3662 46.6457V29.4381H34.6618V46.6457H31.3662ZM28.5234 37.3878V34.4947H37.5046V37.3878H28.5234Z" fill="#103034"></path><path d="M19.8716 46.8973C18.7647 46.8973 17.7668 46.6205 16.8779 46.0671C15.989 45.5136 15.293 44.7589 14.7899 43.8029C14.2867 42.8469 14.0352 41.7736 14.0352 40.5828C14.0352 39.3752 14.2867 38.2935 14.7899 37.3375C15.293 36.3815 15.989 35.6268 16.8779 35.0734C17.7668 34.5199 18.7647 34.2432 19.8716 34.2432C20.7438 34.2432 21.5236 34.4193 22.2113 34.7715C22.8989 35.1237 23.444 35.6184 23.8465 36.2557C24.2658 36.8763 24.4922 37.5807 24.5257 38.369V42.7463C24.4922 43.5513 24.2658 44.2641 23.8465 44.8847C23.444 45.5052 22.8989 46 22.2113 46.369C21.5236 46.7212 20.7438 46.8973 19.8716 46.8973ZM20.4754 43.8532C21.3978 43.8532 22.1442 43.5513 22.7144 42.9476C23.2846 42.327 23.5697 41.5304 23.5697 40.5576C23.5697 39.9203 23.4356 39.3585 23.1672 38.8721C22.9157 38.369 22.5551 37.9832 22.0855 37.7149C21.6326 37.4297 21.096 37.2872 20.4754 37.2872C19.8716 37.2872 19.3349 37.4297 18.8653 37.7149C18.4125 37.9832 18.0519 38.369 17.7836 38.8721C17.532 39.3585 17.4062 39.9203 17.4062 40.5576C17.4062 41.2117 17.532 41.7903 17.7836 42.2935C18.0519 42.7799 18.4125 43.1656 18.8653 43.4507C19.3349 43.7191 19.8716 43.8532 20.4754 43.8532ZM23.3936 46.6457V43.3752L23.9219 40.4067L23.3936 37.4884V34.4947H26.6641V46.6457H23.3936Z" fill="#103034"></path><path d="M6.74214 46.8973C5.87002 46.8973 5.08176 46.7212 4.37736 46.369C3.67296 46 3.11111 45.5052 2.69182 44.8847C2.27254 44.2641 2.04612 43.5513 2.01258 42.7463V38.4444C2.04612 37.6394 2.27254 36.9266 2.69182 36.3061C3.12788 35.6687 3.68973 35.1656 4.37736 34.7966C5.08176 34.4277 5.87002 34.2432 6.74214 34.2432C7.86583 34.2432 8.87212 34.5199 9.76101 35.0734C10.6499 35.6268 11.3459 36.3815 11.8491 37.3375C12.369 38.2935 12.6289 39.3752 12.6289 40.5828C12.6289 41.7736 12.369 42.8469 11.8491 43.8029C11.3459 44.7589 10.6499 45.5136 9.76101 46.0671C8.87212 46.6205 7.86583 46.8973 6.74214 46.8973ZM0 51.7274V34.4947H3.2956V37.6897L2.74214 40.6331L3.27044 43.5765V51.7274H0ZM6.16352 43.8532C6.7673 43.8532 7.30398 43.7191 7.77359 43.4507C8.24319 43.1656 8.60377 42.7799 8.85535 42.2935C9.12369 41.7903 9.25786 41.2117 9.25786 40.5576C9.25786 39.9203 9.12369 39.3585 8.85535 38.8721C8.60377 38.369 8.24319 37.9832 7.77359 37.7149C7.30398 37.4297 6.7673 37.2872 6.16352 37.2872C5.57652 37.2872 5.04822 37.4297 4.57862 37.7149C4.10901 37.9832 3.74004 38.369 3.4717 38.8721C3.22013 39.3585 3.09434 39.9203 3.09434 40.5576C3.09434 41.2117 3.22013 41.7903 3.4717 42.2935C3.74004 42.7799 4.10063 43.1656 4.55346 43.4507C5.02306 43.7191 5.55975 43.8532 6.16352 43.8532Z" fill="#103034"></path><path d="M94.9766 15.543V12.675H106.373V15.543H94.9766ZM99.2281 8.12158H102.146V20.0713H99.2281V8.12158Z" fill="#B4DBCF"></path><path d="M108.604 7.42138V4.55346H120V7.42138H108.604ZM112.855 0H115.773V11.9497H112.855V0Z" fill="#B4DBCF"></path><path d="M108.604 23.6688V20.8009H120V23.6688H108.604ZM112.855 16.2474H115.773V28.1971H112.855V16.2474Z" fill="#B4DBCF"></path></svg>