<svg xmlns="http://www.w3.org/2000/svg" width="36" height="36" viewBox="0 0 36 36" fill="none"><path fill-rule="evenodd" clip-rule="evenodd" d="M33.6775 6.33386C33.6775 5.27017 33.2551 4.25027 32.5031 3.49693C31.7512 2.74636 30.7299 2.32251 29.6662 2.32251H6.3324C5.26871 2.32251 4.24881 2.74496 3.49547 3.49693C2.7449 4.24887 2.32104 5.27017 2.32104 6.33386V29.6677C2.32104 30.7313 2.7435 31.7512 3.49547 32.5046C4.24741 33.2552 5.26871 33.679 6.3324 33.679H29.6662C30.7299 33.679 31.7498 33.2566 32.5031 32.5046C33.2537 31.7526 33.6775 30.7313 33.6775 29.6677V6.33386ZM31.49 6.33386V29.6677C31.49 30.1516 31.2973 30.6137 30.9569 30.9569C30.6137 31.2987 30.1516 31.4901 29.6676 31.4901H6.33379C5.84981 31.4901 5.38771 31.2973 5.04454 30.9569C4.70274 30.6138 4.51135 30.1516 4.51135 29.6677V6.33386C4.51135 5.84988 4.70412 5.38777 5.04454 5.0446C5.3877 4.7028 5.84981 4.51141 6.33379 4.51141H29.6676C30.1516 4.51141 30.6137 4.70418 30.9569 5.0446C31.2987 5.38776 31.49 5.84988 31.49 6.33386Z" fill="black"></path><path fill-rule="evenodd" clip-rule="evenodd" d="M26.3849 27.4786V15.8124C26.3849 14.8062 25.5687 13.99 24.5624 13.99H11.4374C10.4312 13.99 9.61499 14.8062 9.61499 15.8124V27.4786C9.61499 28.4849 10.4312 29.3011 11.4374 29.3011H24.5624C25.5687 29.3011 26.3849 28.4849 26.3849 27.4786ZM11.8011 16.1761V27.1136H24.1974V16.1761H11.8011Z" fill="black"></path><path fill-rule="evenodd" clip-rule="evenodd" d="M3.41626 11.8025H32.5825C33.1868 11.8025 33.6762 11.3131 33.6762 10.7087C33.6762 10.1044 33.1868 9.61499 32.5825 9.61499H3.41626C2.81195 9.61499 2.32251 10.1044 2.32251 10.7087C2.32251 11.3131 2.81195 11.8025 3.41626 11.8025Z" fill="black"></path><path fill-rule="evenodd" clip-rule="evenodd" d="M7.0625 8.15625H8.5213C9.12561 8.15625 9.61505 7.66681 9.61505 7.0625C9.61505 6.45819 9.12561 5.96875 8.5213 5.96875H7.0625C6.45819 5.96875 5.96875 6.45819 5.96875 7.0625C5.96875 7.66681 6.45819 8.15625 7.0625 8.15625Z" fill="black"></path><path fill-rule="evenodd" clip-rule="evenodd" d="M12.1663 8.15625H13.6251C14.2294 8.15625 14.7188 7.66681 14.7188 7.0625C14.7188 6.45819 14.2294 5.96875 13.6251 5.96875H12.1663C11.5619 5.96875 11.0725 6.45819 11.0725 7.0625C11.0725 7.66681 11.5619 8.15625 12.1663 8.15625Z" fill="black"></path><path fill-rule="evenodd" clip-rule="evenodd" d="M17.2712 8.15625H18.73C19.3344 8.15625 19.8238 7.66681 19.8238 7.0625C19.8238 6.45819 19.3344 5.96875 18.73 5.96875H17.2712C16.6669 5.96875 16.1775 6.45819 16.1775 7.0625C16.1775 7.66681 16.6669 8.15625 17.2712 8.15625Z" fill="black"></path><path fill-rule="evenodd" clip-rule="evenodd" d="M22.01 19.0939C22.01 20.5527 19.8225 20.5527 19.8225 19.0939C19.8225 17.6351 22.01 17.6351 22.01 19.0939Z" fill="black"></path><path fill-rule="evenodd" clip-rule="evenodd" d="M15.8658 22.5156L18.685 25.3348C19.1101 25.7627 19.8047 25.7627 20.2313 25.3348C20.6592 24.9096 20.6592 24.2151 20.2313 23.7885L17.1373 20.6946C16.7819 20.3377 16.2924 20.145 15.7879 20.1614C15.2834 20.1791 14.8076 20.4034 14.4768 20.7821L9.88581 26.0293C9.48797 26.4845 9.53445 27.1749 9.98835 27.5728C10.4436 27.9707 11.134 27.9242 11.5319 27.4703L15.8674 22.5171L15.8658 22.5156Z" fill="black"></path><path fill-rule="evenodd" clip-rule="evenodd" d="M21.6995 23.9746L24.5187 26.7938C24.9439 27.2217 25.6384 27.2217 26.065 26.7938C26.4929 26.3686 26.4929 25.6741 26.065 25.2475L22.9711 22.1535C22.6156 21.7967 22.1261 21.6039 21.6216 21.6204C21.1171 21.6381 20.6414 21.8623 20.3105 22.241L15.7196 27.4882C15.3217 27.9435 15.3682 28.6339 15.8221 29.0318C16.2774 29.4297 16.9678 29.3832 17.3657 28.9293L21.7011 23.9761L21.6995 23.9746Z" fill="black"></path></svg>