<svg width="35" height="35" viewBox="0 0 35 35" fill="none" xmlns="http://www.w3.org/2000/svg">
<path d="M17.5002 6.86893C23.3942 6.86893 28.1465 11.6184 28.1465 17.511C28.1465 23.405 23.3942 28.1545 17.5002 28.1545C11.6076 28.1545 6.85673 23.405 6.85673 17.511C6.85536 11.6184 11.6076 6.86893 17.5002 6.86893ZM17.5002 4.34375C10.2405 4.34375 4.33008 10.2542 4.33008 17.5111C4.33008 24.7708 10.2405 30.6827 17.5002 30.6827C24.7599 30.6827 30.6718 24.7708 30.6718 17.5111C30.6718 10.2542 24.7585 4.34375 17.5002 4.34375Z" fill="black"/>
<path d="M24.6403 9.0894C24.3122 9.09897 24.0005 9.23432 23.7721 9.47223L9.44522 23.7676C8.93114 24.2557 8.92022 25.0747 9.42335 25.5764C9.92374 26.0796 10.7427 26.0714 11.2321 25.5559L25.5562 11.2605C26.382 10.4566 25.7928 9.05657 24.6403 9.0894Z" fill="black"/>
</svg>
