<svg xmlns="http://www.w3.org/2000/svg" width="36" height="36" viewBox="0 0 36 36" fill="none"><path d="M29.3135 11.4721C30.0726 12.1652 29.6298 12.861 29.3135 13.1223L12.8324 31.8935M29.3135 11.4721C28.5544 10.779 25.6693 7.85541 24.3216 6.48023M29.3135 11.4721V8.99683L31.5 6.72779L29.3135 4.5L27.1269 6.72779L24.3216 6.48023M24.3216 6.48023C24.0465 6.32896 23.3315 6.2162 22.6714 6.97529C22.075 7.66107 11.2203 17.0631 4.31276 23.02M4.31276 23.02C3.57427 23.6569 2.8809 24.2543 2.25 24.7976L11.2024 33.75L12.8324 31.8935M4.31276 23.02L12.8324 31.8935" stroke="black" stroke-width="1.99386" stroke-linejoin="round"></path></svg>