<svg width="32" height="32" viewBox="0 0 32 32" fill="none" xmlns="http://www.w3.org/2000/svg">
<path d="M6.93384 4.26709C6.3445 4.26709 5.86719 4.74441 5.86719 5.33375C5.86719 5.92309 6.3445 6.4004 6.93384 6.4004H8.0005C8.58984 6.4004 9.06715 5.92309 9.06715 5.33375C9.06715 4.74441 8.58984 4.26709 8.0005 4.26709H6.93384Z" fill="#103034"/>
<path fill-rule="evenodd" clip-rule="evenodd" d="M7.46659 0.000341305C3.34264 0.000341305 0 3.34298 0 7.46693V24.5334C0 28.6574 3.34264 32 7.46659 32H19.1998C19.7891 32 20.2665 31.5227 20.2665 30.9333C20.2665 30.344 19.7891 29.8667 19.1998 29.8667H7.46659C4.52129 29.8667 2.13331 27.4787 2.13331 24.5334V10.1334H29.8663V19.1998C29.8663 19.7891 30.3437 20.2665 30.933 20.2665C31.5223 20.2665 31.9997 19.7891 31.9997 19.1998V7.46659C31.9997 3.34264 28.657 0 24.5331 0L7.46659 0.000341305ZM29.8663 8.00043V7.4671C29.8663 4.5218 27.4784 2.13382 24.5331 2.13382H7.46659C4.52129 2.13382 2.13331 4.5218 2.13331 7.4671V8.00043H29.8663Z" fill="#103034"/>
<path fill-rule="evenodd" clip-rule="evenodd" d="M21.6313 21.6306C21.9019 21.3586 22.2979 21.2546 22.6673 21.356L29.9431 23.352C30.3097 23.4533 30.5951 23.7399 30.6924 24.1079C30.7897 24.4746 30.6844 24.8666 30.4151 25.1346L28.5257 27.0252C28.5537 27.0479 28.5817 27.0719 28.6071 27.0986L31.4364 29.9266C31.8524 30.3439 31.8524 31.0185 31.4364 31.4346C31.019 31.8519 30.3444 31.8519 29.927 31.4346L27.0991 28.6066C27.0724 28.5812 27.0484 28.5532 27.0257 28.5252L25.1351 30.4146C24.8671 30.6839 24.4751 30.7892 24.1084 30.6919C23.7404 30.5946 23.4537 30.3092 23.3524 29.9426L21.3564 22.6668C21.2551 22.2975 21.3593 21.9013 21.6313 21.6306ZM24.9246 27.6094L27.6099 24.924L23.9099 23.9094L24.9246 27.6094Z" fill="#103034"/>
</svg>
