<svg xmlns="http://www.w3.org/2000/svg" width="36" height="37" viewBox="0 0 36 37" fill="none"><path d="M25.499 12.2498C25.074 12.2498 24.7178 12.106 24.4303 11.8185C24.1428 11.531 23.999 11.1748 23.999 10.7498C23.999 10.3248 24.1428 9.96851 24.4303 9.68101C24.7178 9.39351 25.074 9.24976 25.499 9.24976C25.924 9.24976 26.2803 9.39351 26.5678 9.68101C26.8553 9.96851 26.999 10.3248 26.999 10.7498C26.999 11.1748 26.8553 11.531 26.5678 11.8185C26.2803 12.106 25.924 12.2498 25.499 12.2498ZM26.9615 21.2498H15.0365C14.7115 21.2498 14.4803 21.1123 14.3428 20.8373C14.2053 20.5623 14.2365 20.2998 14.4365 20.0498L16.949 16.7498C17.099 16.5498 17.299 16.4498 17.549 16.4498C17.799 16.4498 17.999 16.5498 18.149 16.7498L19.874 18.9998L22.724 15.2873C22.874 15.0873 23.074 14.9873 23.324 14.9873C23.574 14.9873 23.774 15.0873 23.924 15.2873L27.5615 20.0498C27.7615 20.2998 27.7928 20.5623 27.6553 20.8373C27.5178 21.1123 27.2865 21.2498 26.9615 21.2498ZM5.99902 33.2498C5.17402 33.2498 4.46777 32.956 3.88027 32.3685C3.29277 31.781 2.99902 31.0748 2.99902 30.2498V10.7498C2.99902 10.3248 3.14277 9.96851 3.43027 9.68101C3.71777 9.39351 4.07402 9.24976 4.49902 9.24976C4.92402 9.24976 5.28027 9.39351 5.56777 9.68101C5.85527 9.96851 5.99902 10.3248 5.99902 10.7498V30.2498H25.499C25.924 30.2498 26.2803 30.3935 26.5678 30.681C26.8553 30.9685 26.999 31.3248 26.999 31.7498C26.999 32.1748 26.8553 32.531 26.5678 32.8185C26.2803 33.106 25.924 33.2498 25.499 33.2498H5.99902ZM8.99902 6.24976C8.99902 5.42476 9.29277 4.71851 9.88027 4.13101C10.4678 3.54351 11.174 3.24976 11.999 3.24976H17.999C18.424 3.24976 18.7803 3.39351 19.0678 3.68101C19.3553 3.96851 19.499 4.32476 19.499 4.74976C19.499 5.17476 19.3553 5.53101 19.0678 5.81851C18.7803 6.10601 18.424 6.24976 17.999 6.24976H11.999V12.8123C11.999 13.2373 11.8553 13.5935 11.5678 13.881C11.2803 14.1685 10.924 14.3123 10.499 14.3123C10.074 14.3123 9.71777 14.1685 9.43027 13.881C9.14277 13.5935 8.99902 13.2373 8.99902 12.8123V6.24976ZM11.999 27.2498C11.174 27.2498 10.4678 26.956 9.88027 26.3685C9.29277 25.781 8.99902 25.0748 8.99902 24.2498V18.8123C8.99902 18.3873 9.14277 18.031 9.43027 17.7435C9.71777 17.456 10.074 17.3123 10.499 17.3123C10.924 17.3123 11.2803 17.456 11.5678 17.7435C11.8553 18.031 11.999 18.3873 11.999 18.8123V24.2498H17.999C18.424 24.2498 18.7803 24.3935 19.0678 24.681C19.3553 24.9685 19.499 25.3248 19.499 25.7498C19.499 26.1748 19.3553 26.531 19.0678 26.8185C18.7803 27.106 18.424 27.2498 17.999 27.2498H11.999ZM29.999 27.2498H23.999C23.574 27.2498 23.2178 27.106 22.9303 26.8185C22.6428 26.531 22.499 26.1748 22.499 25.7498C22.499 25.3248 22.6428 24.9685 22.9303 24.681C23.2178 24.3935 23.574 24.2498 23.999 24.2498H29.999V18.8123C29.999 18.3873 30.1428 18.031 30.4303 17.7435C30.7178 17.456 31.074 17.3123 31.499 17.3123C31.924 17.3123 32.2803 17.456 32.5678 17.7435C32.8553 18.031 32.999 18.3873 32.999 18.8123V24.2498C32.999 25.0748 32.7053 25.781 32.1178 26.3685C31.5303 26.956 30.824 27.2498 29.999 27.2498ZM32.999 6.24976V12.8123C32.999 13.2373 32.8553 13.5935 32.5678 13.881C32.2803 14.1685 31.924 14.3123 31.499 14.3123C31.074 14.3123 30.7178 14.1685 30.4303 13.881C30.1428 13.5935 29.999 13.2373 29.999 12.8123V6.24976H23.999C23.574 6.24976 23.2178 6.10601 22.9303 5.81851C22.6428 5.53101 22.499 5.17476 22.499 4.74976C22.499 4.32476 22.6428 3.96851 22.9303 3.68101C23.2178 3.39351 23.574 3.24976 23.999 3.24976H29.999C30.824 3.24976 31.5303 3.54351 32.1178 4.13101C32.7053 4.71851 32.999 5.42476 32.999 6.24976Z" fill="black"></path></svg>