<svg width="31" height="31" viewBox="0 0 31 31" fill="none" xmlns="http://www.w3.org/2000/svg">
<path d="M15.4994 29.4502C15.1215 29.4502 14.7425 29.4345 14.3768 29.4067C13.4408 29.3328 12.7094 28.5324 12.7094 27.5902C12.7094 26.6481 13.4408 25.8477 14.3744 25.7738C14.7425 25.746 15.1216 25.7302 15.4994 25.7302C17.1644 25.7302 18.7882 26.0184 20.3261 26.5888C23.0701 25.3948 25.2024 23.2805 26.4303 20.6926C26.182 20.7422 25.9277 20.7701 25.6674 20.7701C23.6488 20.7701 22.0091 19.1305 22.0091 17.1118V13.8884C22.0091 11.8698 23.6487 10.2301 25.6674 10.2301C25.9217 10.2301 26.1724 10.2543 26.4182 10.3076C24.471 6.23387 20.3078 3.41008 15.4991 3.41008C10.6903 3.41008 6.53075 6.23157 4.58364 10.3039C4.82583 10.2542 5.07648 10.23 5.33081 10.23C7.34943 10.23 8.98912 11.8696 8.98912 13.8883V17.1117C8.98912 19.1303 7.34949 20.77 5.33081 20.77C3.61613 20.8015 1.99831 19.4646 1.73202 17.7753C1.61092 17.0257 1.54916 16.2592 1.54916 15.5C1.49588 7.97288 7.77334 1.51 15.4992 1.54999C23.225 1.51003 29.5025 7.97288 29.4492 15.5C29.4492 21.2313 26.0113 26.3162 20.6879 28.4521H20.6843C19.0423 29.1157 17.2935 29.4499 15.4989 29.4499L15.4994 29.4502Z" fill="black"/>
</svg>
